<?xml version="1.0" encoding="utf-8"?>
<!-- Generator: Adobe Illustrator 16.0.0, SVG Export Plug-In . SVG Version: 6.00 Build 0)  -->
<!DOCTYPE svg PUBLIC "-//W3C//DTD SVG 1.1//EN" "http://www.w3.org/Graphics/SVG/1.1/DTD/svg11.dtd">
<svg version="1.1" id="Layer_1" xmlns="http://www.w3.org/2000/svg" xmlns:xlink="http://www.w3.org/1999/xlink" x="0px" y="0px"
	 width="174.427px" height="180.425px" viewBox="0 0 174.427 180.425" enable-background="new 0 0 174.427 180.425"
	 xml:space="preserve">
<g>
	<path fill="#FFFFFF" d="M12.327,13.637c8.739-0.553,16.088-1.663,22.044-3.326s12.023-4.157,18.203-7.483h6.07v101.782
		c0,1.996,0.554,3.534,1.663,4.615c1.108,1.081,2.633,1.622,4.574,1.622h15.467v7.734H15.736v-7.734h12.141
		c3.104,0,5.308-0.679,6.611-2.037c1.302-1.358,1.954-3.589,1.954-6.694V26.609c0-1.773-0.543-3.131-1.628-4.074
		c-1.085-0.942-2.712-1.414-4.881-1.414H12.327V13.637z"/>
	<path fill="#FFFFFF" d="M146.159,49.938c9.867,4.238,16.673,8.894,20.415,13.967c3.741,5.072,5.612,11.462,5.612,19.167
		c0,11.255-3.688,20.402-11.06,27.441c-7.373,7.042-17.38,10.562-30.02,10.562c-12.252,0-21.828-2.828-28.73-8.486
		c-6.901-5.655-10.353-12.893-10.353-21.71c0-6.543,1.926-12.061,5.779-16.552c3.853-4.492,10.769-8.457,20.747-11.896
		c-8.371-4.035-14.136-8.354-17.296-12.955c-3.16-4.601-4.74-10.116-4.74-16.548c0-9.036,3.396-16.783,10.187-23.242
		C113.492,3.229,122.044,0,132.355,0c10.199,0,18.432,2.466,24.697,7.396c6.264,4.93,9.396,10.663,9.396,17.2
		c0,4.82-1.47,9.251-4.407,13.294C159.103,41.934,153.81,45.95,146.159,49.938z M125.703,65.598
		c-5.322,2.274-9.23,5.311-11.726,9.108c-2.494,3.799-3.742,8.775-3.742,14.931c0,7.486,2.051,13.321,6.154,17.508
		c4.102,4.187,9.59,6.281,16.465,6.281c7.151,0,12.931-1.982,17.338-5.947c4.407-3.963,6.61-9.05,6.61-15.259
		c0-5.987-2.162-10.755-6.486-14.303C145.993,74.37,137.787,70.263,125.703,65.598z M139.756,47.606
		c4.49-3.378,7.525-6.549,9.105-9.511c1.58-2.963,2.37-6.604,2.37-10.925c0-5.925-1.802-10.701-5.405-14.329
		c-3.604-3.628-8.371-5.441-14.303-5.441c-5.544,0-10.021,1.62-13.43,4.858c-3.409,3.237-5.114,7.32-5.114,12.246
		c0,4.65,1.624,8.622,4.875,11.914C121.105,39.713,128.405,43.442,139.756,47.606z"/>
	<path fill="#FFFFFF" d="M11.965,138.822h20.044v2.563H29.61c-0.882,0-1.525,0.198-1.93,0.593c-0.404,0.396-0.606,0.997-0.606,1.806
		v24.813c0,3.438-1.241,6.269-3.723,8.492c-2.499,2.224-5.872,3.336-10.118,3.336c-3.915,0-7.1-1.062-9.553-3.185
		C1.227,175.118,0,172.668,0,169.893c0-2.15,0.62-3.901,1.86-5.252c1.241-1.351,2.753-2.026,4.536-2.026
		c1.525,0,2.812,0.51,3.859,1.53c1.048,1.02,1.571,2.266,1.571,3.735c0,1.397-0.377,2.519-1.13,3.364
		c-0.754,0.846-1.664,1.268-2.729,1.268c-0.239,0-0.57-0.036-0.993-0.11c-0.569-0.128-0.974-0.192-1.213-0.192
		c-0.496,0-0.846,0.092-1.048,0.275c-0.202,0.202-0.303,0.515-0.303,0.938c0,1.066,0.542,1.985,1.627,2.757
		c1.451,1.012,3.188,1.517,5.21,1.517c2.243,0,3.998-0.73,5.267-2.191c1.268-1.462,1.902-3.58,1.902-6.355v-25.365
		c0-0.827-0.198-1.434-0.593-1.819c-0.396-0.386-0.979-0.579-1.751-0.579h-4.108V138.822z"/>
	<path fill="#FFFFFF" d="M31.745,138.822h20.512v2.563h-4.163c-0.588,0-1.048,0.198-1.378,0.593
		c-0.331,0.396-0.496,0.997-0.496,1.806v22.553c0,3.181,0.845,5.62,2.536,7.32c1.69,1.7,4.025,2.55,7.003,2.55
		c2.187,0,4.172-0.469,5.955-1.405c1.305-0.698,2.375-1.848,3.212-3.446c0.836-1.6,1.255-3.612,1.255-6.038v-17.314
		c0-2.206-0.492-3.86-1.476-4.963s-2.302-1.654-3.956-1.654h-0.606v-2.563h15.55v2.563h-1.075c-1.618,0-2.85,0.611-3.694,1.834
		c-0.846,1.223-1.269,2.734-1.269,4.535v18.775c0,4.173-1.397,7.526-4.19,10.063c-2.812,2.555-6.673,3.832-11.58,3.832
		c-3.511,0-6.566-0.574-9.167-1.724c-2.602-1.148-4.448-2.628-5.542-4.438s-1.641-4.204-1.641-7.182V144.17
		c0-1.066-0.202-1.797-0.606-2.192c-0.404-0.395-1.13-0.593-2.178-0.593h-3.005V138.822z"/>
	<path fill="#FFFFFF" d="M75.151,141.385v-2.563h20.926v2.563h-3.529c-1.011,0-1.719,0.193-2.123,0.579s-0.606,1.011-0.606,1.875
		v30.327c0,1.231,0.193,2.018,0.579,2.357c0.386,0.341,1.296,0.51,2.729,0.51H99c2.187,0,4.227-1.038,6.12-3.115
		c1.893-2.076,3.345-5.395,4.356-9.953h2.481l-0.938,15.633H75.151v-2.564h3.584c0.79,0,1.388-0.201,1.792-0.606
		c0.404-0.403,0.606-0.974,0.606-1.709v-31.183c0-0.753-0.207-1.3-0.62-1.64c-0.414-0.341-1.126-0.511-2.137-0.511H75.151z"/>
	<path fill="#FFFFFF" d="M111.417,138.822h20.898v2.563h-3.776c-0.81,0-1.397,0.161-1.765,0.482
		c-0.368,0.322-0.552,0.796-0.552,1.42v31.568c0,0.735,0.193,1.259,0.579,1.571c0.496,0.405,1.213,0.606,2.15,0.606h3.363v2.564
		h-20.898v-2.564h3.198c1.104,0,1.88-0.184,2.33-0.551c0.45-0.368,0.676-0.91,0.676-1.627v-31.21c0-0.771-0.207-1.341-0.621-1.709
		c-0.413-0.367-1.062-0.552-1.943-0.552h-3.64V138.822z"/>
	<path fill="#FFFFFF" d="M153.5,137.801c3.842,0,7.385,0.928,10.629,2.783s5.771,4.386,7.582,7.591
		c1.81,3.205,2.716,6.818,2.716,10.842c0,6.116-1.999,11.214-5.997,15.291c-3.998,4.078-8.956,6.117-14.874,6.117
		c-3.934,0-7.458-0.928-10.573-2.783c-3.115-1.854-5.574-4.357-7.375-7.508c-1.802-3.149-2.702-6.81-2.702-10.979
		c0-6.19,1.976-11.297,5.928-15.319C142.784,139.813,147.674,137.801,153.5,137.801z M153.666,140.448
		c-2.188,0-4.085,0.603-5.693,1.805c-1.608,1.203-2.886,3.146-3.832,5.827c-0.947,2.682-1.42,6.354-1.42,11.02
		c0,4.904,0.436,8.619,1.31,11.145c0.872,2.525,2.146,4.394,3.818,5.606c1.672,1.212,3.62,1.818,5.845,1.818
		c3.29,0,5.918-1.41,7.885-4.229c1.967-2.819,2.95-7.719,2.95-14.698c0-4.886-0.423-8.555-1.268-11.007
		c-0.846-2.451-2.105-4.279-3.777-5.482C157.811,141.05,155.871,140.448,153.666,140.448z"/>
</g>
</svg>
