<?xml version="1.0" encoding="utf-8"?>
<!-- Generator: Adobe Illustrator 16.0.0, SVG Export Plug-In . SVG Version: 6.00 Build 0)  -->
<!DOCTYPE svg PUBLIC "-//W3C//DTD SVG 1.1//EN" "http://www.w3.org/Graphics/SVG/1.1/DTD/svg11.dtd">
<svg version="1.1" id="Layer_1" xmlns="http://www.w3.org/2000/svg" xmlns:xlink="http://www.w3.org/1999/xlink" x="0px" y="0px"
	 width="174.428px" height="180.425px" viewBox="0 0 174.428 180.425" enable-background="new 0 0 174.428 180.425"
	 xml:space="preserve">
<g>
	<path fill="#65DBE3" d="M12.327,13.637c8.738-0.553,16.088-1.663,22.044-3.326s12.022-4.157,18.203-7.483h6.069V104.61
		c0,1.996,0.555,3.534,1.663,4.615c1.107,1.081,2.633,1.622,4.573,1.622h15.468v7.734H15.736v-7.734h12.142
		c3.104,0,5.309-0.68,6.61-2.037c1.303-1.357,1.954-3.589,1.954-6.693V26.609c0-1.773-0.543-3.131-1.628-4.074
		c-1.085-0.942-2.712-1.414-4.881-1.414H12.327V13.637z"/>
	<path fill="#65DBE3" d="M146.159,49.938c9.866,4.238,16.673,8.894,20.415,13.967c3.74,5.072,5.611,11.462,5.611,19.167
		c0,11.255-3.688,20.402-11.061,27.441c-7.373,7.042-17.38,10.562-30.021,10.562c-12.252,0-21.828-2.828-28.729-8.486
		c-6.9-5.655-10.354-12.895-10.354-21.711c0-6.542,1.927-12.062,5.779-16.551c3.853-4.492,10.769-8.457,20.746-11.896
		c-8.37-4.035-14.136-8.354-17.296-12.955s-4.739-10.116-4.739-16.548c0-9.036,3.396-16.783,10.188-23.242
		C113.492,3.229,122.044,0,132.355,0c10.199,0,18.433,2.466,24.697,7.396c6.264,4.93,9.396,10.663,9.396,17.2
		c0,4.82-1.47,9.251-4.406,13.294C159.103,41.934,153.81,45.95,146.159,49.938z M125.703,65.598
		c-5.322,2.274-9.229,5.311-11.727,9.108c-2.494,3.799-3.742,8.775-3.742,14.931c0,7.485,2.052,13.321,6.154,17.508
		s9.59,6.28,16.465,6.28c7.15,0,12.932-1.981,17.338-5.946c4.407-3.963,6.61-9.05,6.61-15.259c0-5.987-2.162-10.755-6.486-14.303
		C145.993,74.37,137.787,70.263,125.703,65.598z M139.756,47.606c4.49-3.378,7.524-6.549,9.104-9.511
		c1.58-2.963,2.37-6.604,2.37-10.925c0-5.925-1.802-10.701-5.404-14.329c-3.604-3.628-8.371-5.441-14.304-5.441
		c-5.544,0-10.021,1.62-13.431,4.858c-3.408,3.237-5.113,7.32-5.113,12.246c0,4.65,1.624,8.622,4.875,11.914
		C121.105,39.713,128.405,43.442,139.756,47.606z"/>
	<path fill="#FFFFFF" d="M11.965,138.822h20.044v2.562H29.61c-0.882,0-1.524,0.199-1.93,0.594c-0.404,0.396-0.605,0.997-0.605,1.807
		v24.812c0,3.438-1.241,6.27-3.724,8.492c-2.499,2.224-5.872,3.336-10.118,3.336c-3.915,0-7.101-1.062-9.553-3.186
		C1.227,175.119,0,172.667,0,169.893c0-2.149,0.62-3.901,1.859-5.252c1.241-1.351,2.753-2.026,4.536-2.026
		c1.524,0,2.812,0.51,3.858,1.53c1.049,1.021,1.571,2.267,1.571,3.735c0,1.396-0.377,2.519-1.131,3.363
		c-0.754,0.846-1.664,1.269-2.729,1.269c-0.238,0-0.569-0.036-0.992-0.11C6.405,172.274,6,172.21,5.761,172.21
		c-0.496,0-0.847,0.092-1.049,0.273C4.511,172.687,4.41,173,4.41,173.423c0,1.066,0.542,1.984,1.627,2.757
		c1.45,1.012,3.188,1.517,5.21,1.517c2.243,0,3.998-0.73,5.268-2.191c1.269-1.461,1.901-3.58,1.901-6.354v-25.363
		c0-0.828-0.198-1.436-0.593-1.82c-0.396-0.385-0.979-0.578-1.752-0.578h-4.107L11.965,138.822L11.965,138.822z"/>
	<path fill="#FFFFFF" d="M31.745,138.822h20.512v2.562h-4.162c-0.589,0-1.049,0.199-1.379,0.594
		c-0.331,0.396-0.495,0.997-0.495,1.807v22.553c0,3.182,0.845,5.619,2.535,7.32c1.689,1.699,4.024,2.549,7.003,2.549
		c2.188,0,4.173-0.469,5.955-1.404c1.306-0.697,2.375-1.848,3.212-3.445c0.837-1.602,1.256-3.611,1.256-6.038v-17.313
		c0-2.205-0.492-3.859-1.477-4.963c-0.983-1.104-2.303-1.653-3.956-1.653h-0.605v-2.563h15.55v2.563h-1.074
		c-1.618,0-2.851,0.61-3.694,1.834c-0.846,1.224-1.27,2.733-1.27,4.534v18.775c0,4.174-1.396,7.525-4.189,10.061
		c-2.812,2.557-6.673,3.832-11.58,3.832c-3.511,0-6.565-0.572-9.167-1.723c-2.602-1.147-4.447-2.629-5.542-4.438
		c-1.094-1.811-1.641-4.204-1.641-7.184v-22.912c0-1.064-0.202-1.797-0.605-2.19c-0.404-0.396-1.131-0.595-2.179-0.595h-3.005
		L31.745,138.822L31.745,138.822z"/>
	<path fill="#FFFFFF" d="M75.151,141.384v-2.562h20.927v2.562h-3.529c-1.011,0-1.719,0.193-2.123,0.58
		c-0.403,0.386-0.605,1.011-0.605,1.875v30.326c0,1.23,0.193,2.019,0.579,2.356c0.387,0.343,1.296,0.511,2.729,0.511H99
		c2.188,0,4.228-1.037,6.12-3.115c1.894-2.076,3.345-5.396,4.355-9.953h2.48l-0.938,15.634H75.151v-2.563h3.584
		c0.79,0,1.389-0.201,1.792-0.607c0.404-0.401,0.605-0.973,0.605-1.709v-31.182c0-0.754-0.207-1.301-0.619-1.641
		c-0.414-0.342-1.126-0.512-2.138-0.512H75.151L75.151,141.384z"/>
	<path fill="#FFFFFF" d="M111.417,138.822h20.897v2.562h-3.775c-0.811,0-1.396,0.162-1.766,0.482
		c-0.368,0.321-0.552,0.797-0.552,1.42v31.567c0,0.733,0.192,1.261,0.578,1.569c0.496,0.406,1.214,0.607,2.15,0.607h3.362v2.562
		h-20.897v-2.562h3.197c1.104,0,1.881-0.185,2.33-0.552c0.45-0.368,0.677-0.909,0.677-1.627v-31.21c0-0.771-0.207-1.342-0.621-1.709
		c-0.413-0.367-1.062-0.553-1.942-0.553h-3.641L111.417,138.822L111.417,138.822z"/>
	<path fill="#FFFFFF" d="M153.5,137.8c3.842,0,7.385,0.929,10.629,2.783s5.771,4.387,7.582,7.592
		c1.811,3.205,2.717,6.818,2.717,10.842c0,6.115-1.999,11.214-5.997,15.291c-3.998,4.078-8.956,6.117-14.874,6.117
		c-3.935,0-7.458-0.928-10.573-2.783c-3.114-1.854-5.573-4.357-7.375-7.508c-1.802-3.149-2.701-6.811-2.701-10.979
		c0-6.191,1.976-11.299,5.928-15.32C142.784,139.813,147.674,137.8,153.5,137.8z M153.666,140.449c-2.188,0-4.085,0.602-5.692,1.805
		s-2.887,3.146-3.832,5.826c-0.947,2.683-1.42,6.354-1.42,11.021c0,4.902,0.437,8.617,1.311,11.146
		c0.871,2.523,2.146,4.394,3.817,5.604s3.62,1.817,5.845,1.817c3.29,0,5.918-1.41,7.886-4.229c1.967-2.818,2.949-7.719,2.949-14.697
		c0-4.887-0.423-8.556-1.268-11.008c-0.847-2.449-2.105-4.277-3.777-5.48C157.811,141.05,155.871,140.449,153.666,140.449z"/>
</g>
</svg>
