<?xml version="1.0" encoding="utf-8"?>
<!-- Generator: Adobe Illustrator 16.0.0, SVG Export Plug-In . SVG Version: 6.00 Build 0)  -->
<!DOCTYPE svg PUBLIC "-//W3C//DTD SVG 1.1//EN" "http://www.w3.org/Graphics/SVG/1.1/DTD/svg11.dtd">
<svg version="1.1" id="Layer_1" xmlns="http://www.w3.org/2000/svg" xmlns:xlink="http://www.w3.org/1999/xlink" x="0px" y="0px"
	 width="172.43px" height="84.949px" viewBox="0 0 172.43 84.949" enable-background="new 0 0 172.43 84.949" xml:space="preserve">
<g>
	<g>
		<path fill="#FFFFFF" d="M0.053,50.09L9.859,0l15.992,36.21L42.418,0l8.812,50.09h-7.212l-4.496-28.124l-13.79,30.267
			L12.334,21.938L7.324,50.09H0.053z"/>
		<path fill="#FFFFFF" d="M142.938,50.09V3.5h7.001c3.117,0,5.602,0.242,7.453,0.725c1.87,0.482,3.448,1.298,4.736,2.444
			c1.309,1.187,2.344,2.665,3.107,4.436c0.785,1.791,1.177,3.601,1.177,5.432c0,3.339-1.276,6.166-3.832,8.479
			c2.476,0.845,4.426,2.323,5.854,4.436c1.447,2.093,2.172,4.526,2.172,7.303c0,3.641-1.287,6.72-3.862,9.234
			c-1.549,1.549-3.289,2.625-5.22,3.229c-2.112,0.584-4.758,0.875-7.937,0.875h-10.65V50.09z M149.97,23.506h2.201
			c2.615,0,4.531-0.578,5.748-1.734c1.219-1.157,1.826-2.862,1.826-5.115c0-2.192-0.624-3.856-1.871-4.994
			c-1.247-1.136-3.058-1.704-5.432-1.704h-2.474L149.97,23.506L149.97,23.506z M149.97,43.482h4.345
			c3.179,0,5.512-0.624,7.001-1.872c1.567-1.347,2.354-3.057,2.354-5.129c0-2.012-0.755-3.701-2.264-5.069
			c-1.469-1.348-4.094-2.022-7.875-2.022h-3.561V43.482z"/>
	</g>
	<g>
		<g>
			<path fill="#FFFFFF" d="M93.019,52.094c0.352,0.201,0.739,0.354,1.159,0.354c0.389,0,0.808-0.11,1.162-0.354
				c0.95-0.642,23.264-15.352,25.798-30.307c1.304-7.746-1.091-12.532-3.302-15.174c-2.606-3.098-6.48-4.925-10.315-4.925
				c-1.269,0-2.505,0.21-3.592,0.632c-5.354,2.007-8.978,5.561-10.949,7.992c-1.934-2.394-5.246-5.846-9.253-7.219
				c-1.231-0.419-2.574-0.633-3.98-0.633c-3.587,0-7.001,1.475-9.363,4.087c-2.073,2.286-4.435,6.653-3.692,14.254
				C68.169,35.758,91.996,51.421,93.019,52.094z"/>
		</g>
	</g>
</g>
<g>
	<rect x="0" y="82.949" fill="#FFFFFF" width="172.43" height="2"/>
</g>
</svg>
