<?xml version="1.0" encoding="utf-8"?>
<!-- Generator: Adobe Illustrator 16.0.0, SVG Export Plug-In . SVG Version: 6.00 Build 0)  -->
<!DOCTYPE svg PUBLIC "-//W3C//DTD SVG 1.1//EN" "http://www.w3.org/Graphics/SVG/1.1/DTD/svg11.dtd">
<svg version="1.1" id="Layer_1" xmlns="http://www.w3.org/2000/svg" xmlns:xlink="http://www.w3.org/1999/xlink" x="0px" y="0px"
	 width="245.471px" height="186.744px" viewBox="0 0 245.471 186.744" enable-background="new 0 0 245.471 186.744"
	 xml:space="preserve">
<g>
	<path fill="#65DBE3" d="M1.648,0.971h33.793l0.761,13.564h-2.309c-0.542-3.201-1.221-5.505-2.033-6.913
		c-0.813-1.408-1.881-2.462-3.201-3.162c-1.32-0.699-3.048-1.049-5.182-1.049h-5.3c-0.822,0-1.418,0.161-1.784,0.485
		c-0.367,0.323-0.552,0.773-0.552,1.351v13.46h1.812c2.081,0,3.694-0.595,4.841-1.784c1.146-1.189,1.823-3.104,2.033-5.746h2.361
		v18.051h-2.361c-0.157-2.991-0.813-5.099-1.968-6.323c-1.154-1.224-2.896-1.837-5.223-1.837h-1.495V35.42
		c0,0.63,0.185,1.076,0.552,1.338c0.56,0.386,1.363,0.577,2.414,0.577h4.67c3.201,0,5.814-1.022,7.845-3.069
		c2.029-2.046,3.288-5.133,3.778-9.262h2.36l-0.577,14.771H1.648v-2.44h3.49c0.786,0,1.386-0.2,1.797-0.603s0.615-0.945,0.615-1.627
		V5.247c0-0.63-0.204-1.093-0.615-1.391C6.524,3.56,5.785,3.411,4.719,3.411h-3.07L1.648,0.971L1.648,0.971z"/>
	<path fill="#65DBE3" d="M39.702,0.971h20.254c3.288,0,5.969,0.424,8.042,1.271c2.072,0.848,3.616,2.002,4.631,3.461
		s1.521,3.081,1.521,4.863c0,2.85-1.277,5.156-3.83,6.922c-1.942,1.347-4.933,2.22-8.974,2.622c2.026,0.333,3.587,0.863,4.679,1.592
		c1.092,0.728,2.058,1.811,2.896,3.249c1.104,1.889,2.008,4.154,2.708,6.795c0.438,1.696,0.823,2.764,1.156,3.201
		c0.332,0.438,0.708,0.655,1.128,0.655c1.154,0,1.846-1.53,2.073-4.591h2.309c-0.175,3.253-0.9,5.584-2.178,6.992
		c-1.277,1.407-3.079,2.111-5.405,2.111c-1.661,0-2.995-0.341-4.001-1.023c-1.006-0.682-1.771-1.679-2.295-2.99
		c-0.314-0.752-0.753-2.519-1.312-5.3c-0.646-3.254-1.229-5.439-1.744-6.56c-0.518-1.119-1.187-1.95-2.008-2.492
		c-0.822-0.542-1.836-0.813-3.043-0.813H53.45v14.299c0,0.63,0.184,1.111,0.551,1.443c0.524,0.438,1.138,0.655,1.836,0.655h3.517
		v2.44h-19.65v-2.44h3.043c0.787,0,1.382-0.205,1.784-0.616c0.402-0.411,0.604-0.983,0.604-1.719V5.746
		c0-0.805-0.184-1.395-0.551-1.771s-0.893-0.563-1.574-0.563h-3.306L39.702,0.971L39.702,0.971z M53.45,18.575h3.279
		c2.902,0,5.193-0.743,6.874-2.229c1.259-1.137,1.889-3.053,1.889-5.746c0-2.483-0.621-4.298-1.862-5.444
		c-1.241-1.146-3.394-1.719-6.454-1.719c-1.645,0-2.677,0.18-3.097,0.538c-0.419,0.359-0.629,1.159-0.629,2.4V18.575z"/>
	<path fill="#65DBE3" d="M77.965,0.971h15.628l8.812,26.289l8.775-26.289h16.03v2.44h-3.479c-0.86,0-1.454,0.157-1.778,0.472
		c-0.325,0.315-0.488,0.857-0.488,1.627v29.647c0,0.752,0.177,1.268,0.527,1.548c0.527,0.42,1.239,0.629,2.135,0.629h3.084v2.44
		h-19.756v-2.44h3.727c0.682,0,1.201-0.191,1.561-0.577c0.358-0.384,0.538-0.918,0.538-1.6V3.411l-12.33,36.363h-2.32L86.335,3.096
		v28.361c0,1.627,0.517,2.961,1.548,4.002c1.031,1.04,2.527,1.666,4.486,1.875v2.44H77.965v-2.44
		c1.819-0.157,3.231-0.795,4.237-1.915c1.006-1.119,1.509-2.545,1.509-4.276V6.061c0-1.066-0.184-1.775-0.551-2.125
		s-1.076-0.524-2.125-0.524h-3.07V0.971z"/>
	<path fill="#65DBE3" d="M126.933,0.971h19.887v2.44h-3.594c-0.771,0-1.33,0.153-1.681,0.459c-0.35,0.306-0.523,0.757-0.523,1.351
		v30.041c0,0.7,0.184,1.198,0.551,1.495c0.473,0.386,1.154,0.577,2.047,0.577h3.2v2.44h-19.887v-2.44h3.043
		c1.05,0,1.789-0.174,2.218-0.524c0.428-0.35,0.643-0.865,0.643-1.548v-29.7c0-0.735-0.196-1.277-0.591-1.627
		c-0.394-0.35-1.01-0.524-1.85-0.524h-3.463V0.971z"/>
	<path fill="#65DBE3" d="M147.433,0.971h33.924l0.866,14.745h-2.389c-0.56-3.148-1.285-5.605-2.178-7.373
		c-0.892-1.766-1.911-3.021-3.057-3.765c-1.146-0.743-2.4-1.115-3.766-1.115c-0.787,0-1.363,0.162-1.73,0.485
		c-0.367,0.324-0.551,0.792-0.551,1.404v30.014c0,0.578,0.179,1.05,0.536,1.417c0.358,0.367,0.792,0.551,1.3,0.551h4.407v2.44
		h-20.753v-2.44h4.197c0.63,0,1.129-0.179,1.496-0.537s0.551-0.835,0.551-1.431V5.51c0-0.699-0.188-1.216-0.563-1.548
		s-0.968-0.499-1.771-0.499c-4.46,0-7.478,4.085-9.052,12.253h-2.31L147.433,0.971z"/>
	<path fill="#65DBE3" d="M201.42,0l14.552,34.815c0.42,0.98,0.875,1.645,1.364,1.994c0.49,0.351,1.139,0.524,1.942,0.524h1.418v2.44
		h-18.208v-2.44h1.705c1.347,0,2.272-0.148,2.781-0.445c0.507-0.298,0.761-0.691,0.761-1.181c0-0.385-0.104-0.831-0.314-1.338
		l-2.992-7.189h-14.526l-1.38,3.28c-0.578,1.364-0.867,2.379-0.867,3.043c0,1.137,0.42,2.06,1.261,2.768
		c0.842,0.709,1.989,1.062,3.444,1.062h1.234v2.44H178.85v-2.44h0.842c0.948,0,1.781-0.297,2.501-0.892
		c1.018-0.84,1.808-1.915,2.369-3.228L198.475,0H201.42z M197.201,9.823l-6.219,14.786h12.374L197.201,9.823z"/>
	<path fill="#65DBE3" d="M229.68,37.757l-3.053,24.785h-3.229l0.176-1.482c-0.802,0.715-1.496,1.199-2.084,1.453
		c-0.577,0.02-1.291,0.029-2.142,0.029c-1.938,0-3.522-0.611-4.756-1.835c-1.231-1.232-1.85-2.819-1.85-4.762
		c0-2.073,0.676-3.796,2.025-5.168c1.351-1.372,3.048-2.059,5.092-2.059c1.047,0,1.928,0.181,2.642,0.543
		c0.743,0.372,1.521,1.003,2.334,1.893l1.6-13.397H229.68z M224.339,55.038c0-1.154-0.361-2.088-1.086-2.801
		c-0.725-0.712-1.673-1.068-2.848-1.068c-1.271,0-2.323,0.467-3.154,1.4c-0.832,0.934-1.248,2.113-1.248,3.537
		c0,1.203,0.357,2.171,1.071,2.902c0.715,0.722,1.663,1.083,2.848,1.083c1.232,0,2.274-0.491,3.125-1.473
		C223.908,57.656,224.339,56.463,224.339,55.038z"/>
	<path fill="#65DBE3" d="M234.684,56.789c0,0.962,0.353,1.753,1.057,2.373c0.714,0.619,1.624,0.93,2.729,0.93
		c1.517,0,2.681-0.504,3.492-1.512l2.421,1.202c-0.842,1.021-1.706,1.734-2.598,2.139c-0.898,0.414-2.023,0.621-3.375,0.621
		c-2.143,0-3.842-0.593-5.1-1.778c-1.257-1.185-1.887-2.77-1.887-4.755c0-2.076,0.7-3.812,2.103-5.209
		c1.39-1.388,3.147-2.081,5.272-2.081c2.058,0,3.678,0.63,4.862,1.889c1.204,1.27,1.808,2.969,1.808,5.099
		c0,0.223-0.016,0.583-0.045,1.083L234.684,56.789L234.684,56.789z M242.168,54.339c-0.343-2.113-1.521-3.17-3.536-3.17
		c-1.907,0-3.149,1.057-3.728,3.17H242.168z"/>
	<path fill="#65DBE3" d="M28.922,75.305H11.286l-4.59,10.006H0l20.384-43.783l19.664,43.783h-6.804L28.922,75.305z M26.387,69.462
		l-6.109-14.008l-6.403,14.008H26.387z"/>
	<path fill="#65DBE3" d="M45.472,59.323h6.003v2.321c1.103-1.156,2.081-1.948,2.935-2.375c0.872-0.444,1.903-0.667,3.096-0.667
		c1.583,0,3.236,0.517,4.962,1.548l-2.747,5.496c-1.14-0.817-2.25-1.228-3.336-1.228c-3.271,0-4.908,2.473-4.908,7.418V85.31h-6.003
		L45.472,59.323L45.472,59.323z"/>
	<path fill="#65DBE3" d="M86.113,59.323h6.03V85.31h-6.03v-2.722c-2.472,2.312-5.132,3.469-7.979,3.469
		c-3.593,0-6.562-1.298-8.91-3.896c-2.33-2.65-3.495-5.959-3.495-9.926c0-3.895,1.165-7.141,3.495-9.738
		c2.33-2.597,5.247-3.896,8.751-3.896c3.023,0,5.736,1.245,8.138,3.735V59.323z M71.866,72.236c0,2.491,0.667,4.519,2.001,6.084
		c1.369,1.583,3.095,2.374,5.176,2.374c2.225,0,4.021-0.765,5.391-2.294c1.37-1.583,2.055-3.593,2.055-6.03s-0.685-4.446-2.055-6.03
		c-1.37-1.547-3.148-2.321-5.336-2.321c-2.063,0-3.789,0.783-5.177,2.349C72.551,67.95,71.866,69.907,71.866,72.236z"/>
	<path fill="#65DBE3" d="M104.85,59.323l6.724,14.595l6.696-14.595h6.751L111.52,87.099L98.126,59.323H104.85z"/>
	<path fill="#65DBE3" d="M148.72,59.323h6.029V85.31h-6.029v-2.722c-2.473,2.312-5.133,3.469-7.979,3.469
		c-3.593,0-6.562-1.298-8.911-3.896c-2.33-2.65-3.495-5.959-3.495-9.926c0-3.895,1.165-7.141,3.495-9.738
		c2.33-2.597,5.247-3.896,8.751-3.896c3.024,0,5.737,1.245,8.139,3.735V59.323L148.72,59.323z M134.473,72.236
		c0,2.491,0.667,4.519,2.001,6.084c1.369,1.583,3.095,2.374,5.176,2.374c2.224,0,4.02-0.765,5.39-2.294
		c1.37-1.583,2.056-3.593,2.056-6.03s-0.686-4.446-2.056-6.03c-1.37-1.547-3.147-2.321-5.336-2.321
		c-2.062,0-3.789,0.783-5.176,2.349C135.157,67.95,134.473,69.907,134.473,72.236z"/>
	<path fill="#65DBE3" d="M183.973,60.443v7.979c-1.369-1.672-2.598-2.819-3.683-3.442c-1.066-0.641-2.32-0.961-3.762-0.961
		c-2.26,0-4.136,0.792-5.63,2.375s-2.241,3.566-2.241,5.95c0,2.438,0.72,4.438,2.161,6.003c1.458,1.565,3.317,2.348,5.576,2.348
		c1.439,0,2.712-0.311,3.814-0.934c1.067-0.604,2.321-1.778,3.763-3.521v7.924c-2.438,1.263-4.874,1.895-7.312,1.895
		c-4.02,0-7.382-1.298-10.085-3.896c-2.704-2.614-4.056-5.86-4.056-9.738s1.369-7.15,4.107-9.819
		c2.739-2.668,6.103-4.002,10.086-4.002C179.277,58.603,181.696,59.217,183.973,60.443z"/>
	<path fill="#65DBE3" d="M210.367,59.323h6.03V85.31h-6.03v-2.722c-2.472,2.312-5.132,3.469-7.978,3.469
		c-3.594,0-6.563-1.298-8.911-3.896c-2.33-2.65-3.495-5.959-3.495-9.926c0-3.895,1.165-7.141,3.495-9.738
		c2.33-2.597,5.247-3.896,8.751-3.896c3.023,0,5.736,1.245,8.138,3.735V59.323L210.367,59.323z M196.12,72.236
		c0,2.491,0.667,4.519,2.001,6.084c1.369,1.583,3.095,2.374,5.176,2.374c2.225,0,4.021-0.765,5.391-2.294
		c1.37-1.583,2.055-3.593,2.055-6.03s-0.685-4.446-2.055-6.03c-1.37-1.547-3.148-2.321-5.336-2.321
		c-2.063,0-3.789,0.783-5.177,2.349C196.805,67.95,196.12,69.907,196.12,72.236z"/>
</g>
<g>
	<path fill="#FFFFFF" d="M74.087,139.438h1.075c0.945,0.352,2.073,0.525,3.385,0.525h18.052v2.256
		c-2.396,4.812-4.027,8.365-4.895,10.665c-0.865,2.302-1.539,4.627-2.02,6.979c-0.481,2.353-0.896,5.662-1.246,9.931
		c-0.21,2.501-0.469,4.158-0.774,4.972c-0.307,0.813-0.796,1.447-1.469,1.901c-0.674,0.455-1.492,0.683-2.453,0.683
		c-1.207,0-2.135-0.351-2.781-1.05c-0.646-0.698-0.971-1.723-0.971-3.069c0-0.752,0.104-1.616,0.314-2.598
		c0.297-1.486,0.761-3.033,1.391-4.644c0.874-2.257,2.047-4.792,3.516-7.608l6.611-11.833H78.94c-1.226,0-2.072,0.351-2.545,1.05
		c-0.474,0.699-1.023,2.344-1.652,4.934h-2.414L74.087,139.438z"/>
	<path fill="#FFFFFF" d="M97.578,152.138l9.996-0.63c0.402,1.593,0.638,3.179,0.708,4.753c1.032-1.654,2.357-2.938,3.975-3.854
		c1.618-0.914,3.415-1.372,5.393-1.372c3.166,0,5.729,1.13,7.688,3.388c1.959,2.26,2.938,5.454,2.938,9.587
		c0,2.871-0.472,5.306-1.417,7.302c-0.944,1.996-2.261,3.502-3.948,4.517c-1.688,1.016-3.66,1.522-5.916,1.522
		c-1.802,0-3.402-0.406-4.802-1.221s-2.702-2.123-3.909-3.926v8.792c0,1.155,0.088,1.896,0.263,2.219
		c0.176,0.323,0.503,0.567,0.983,0.734c0.481,0.166,1.438,0.258,2.873,0.274v2.52H97.578v-2.52h0.787
		c0.927,0,1.548-0.082,1.862-0.248c0.314-0.168,0.56-0.451,0.734-0.854c0.122-0.28,0.185-0.989,0.185-2.126v-23.245
		c0-1.137-0.088-1.895-0.264-2.27c-0.175-0.377-0.441-0.646-0.8-0.813c-0.358-0.166-1.193-0.274-2.506-0.328L97.578,152.138
		L97.578,152.138z M114.369,154.683c-1.696,0-3.14,0.815-4.329,2.446c-1.188,1.632-1.784,4.017-1.784,7.156
		c0,3.104,0.626,5.479,1.876,7.13c1.251,1.648,2.682,2.473,4.29,2.473c1.574,0,2.843-0.71,3.805-2.131
		c1.26-1.877,1.89-4.402,1.89-7.576c0-2.912-0.508-5.223-1.521-6.934C117.579,155.538,116.171,154.683,114.369,154.683z"/>
	<path fill="#FFFFFF" d="M178.476,174.124v2.439h-14.823v-2.439h1.521c0.928,0,1.578-0.184,1.955-0.55
		c0.376-0.366,0.563-0.935,0.563-1.703v-10.663c0-1.975-0.406-3.432-1.22-4.375c-0.814-0.943-1.946-1.415-3.397-1.415
		c-1.188,0-2.208,0.267-3.057,0.8c-0.85,0.532-1.579,1.424-2.19,2.672c-0.612,1.25-0.919,2.477-0.919,3.682v9.615
		c0,0.629,0.175,1.108,0.525,1.44c0.35,0.332,0.82,0.497,1.416,0.497h2.021v2.439h-15.086v-2.439h1.68
		c0.909,0,1.521-0.148,1.836-0.445c0.402-0.385,0.604-0.936,0.604-1.652v-11.071c0-1.767-0.438-3.14-1.312-4.119
		c-0.875-0.979-1.984-1.47-3.332-1.47c-1.05,0-2.023,0.271-2.926,0.812c-0.899,0.543-1.67,1.383-2.309,2.52
		c-0.639,1.138-0.958,2.178-0.958,3.121v9.63c0,0.979,0.175,1.645,0.524,1.993c0.473,0.455,1.138,0.683,1.994,0.683h1.442v2.44
		h-15.164v-2.44h1.731c0.927,0,1.568-0.17,1.928-0.511c0.357-0.34,0.538-0.922,0.538-1.742V157.12c0-0.663-0.127-1.191-0.38-1.585
		c-0.255-0.394-0.652-0.694-1.194-0.903c-0.402-0.156-1.225-0.236-2.466-0.236v-2.388l10.127-0.551
		c0.385,1.687,0.639,3.505,0.761,5.455c1.68-2.144,3.293-3.64,4.841-4.492s3.231-1.276,5.051-1.276c1.958,0,3.581,0.496,4.866,1.487
		c1.286,0.992,2.234,2.489,2.848,4.491c1.664-2.194,3.314-3.749,4.952-4.662c1.639-0.913,3.351-1.37,5.138-1.37
		c2.486,0,4.449,0.778,5.885,2.335c1.437,1.574,2.155,3.805,2.155,6.69v11.754c0,0.805,0.181,1.382,0.541,1.731
		c0.36,0.351,0.92,0.523,1.678,0.523H178.476z"/>
</g>
<g>
	<line fill="none" stroke="#FFFFFF" stroke-width="2" stroke-miterlimit="10" x1="61.215" y1="111.419" x2="185.521" y2="111.419"/>
</g>
</svg>
