<?xml version="1.0" encoding="utf-8"?>
<!-- Generator: Adobe Illustrator 16.0.0, SVG Export Plug-In . SVG Version: 6.00 Build 0)  -->
<!DOCTYPE svg PUBLIC "-//W3C//DTD SVG 1.1//EN" "http://www.w3.org/Graphics/SVG/1.1/DTD/svg11.dtd">
<svg version="1.1" id="Layer_1" xmlns="http://www.w3.org/2000/svg" xmlns:xlink="http://www.w3.org/1999/xlink" x="0px" y="0px"
	 width="710.712px" height="85.625px" viewBox="0 0 710.712 85.625" enable-background="new 0 0 710.712 85.625"
	 xml:space="preserve">
<g>
	<path fill="#FFFFFF" d="M0,81.953l12.695-64.844l20.703,46.875l21.445-46.875L66.25,81.953h-9.336l-5.82-36.406l-17.852,39.18
		L15.898,45.508L9.414,81.953H0z"/>
	<path fill="#FFFFFF" d="M77.456,51.523c0-8.489,3.111-15.781,9.336-21.875c6.197-6.094,13.646-9.141,22.344-9.141
		c8.594,0,15.963,3.073,22.109,9.219c6.172,6.146,9.258,13.529,9.258,22.148c0,8.672-3.1,16.029-9.297,22.07
		c-6.225,6.068-13.737,9.102-22.539,9.102c-7.787,0-14.779-2.695-20.977-8.086C80.867,68.998,77.456,61.186,77.456,51.523z
		 M86.636,51.621c0,6.661,2.239,12.139,6.719,16.432c4.453,4.293,9.596,6.439,15.43,6.439c6.328,0,11.666-2.186,16.016-6.557
		c4.349-4.423,6.523-9.81,6.523-16.158c0-6.426-2.148-11.812-6.445-16.158c-4.271-4.372-9.558-6.557-15.859-6.557
		c-6.276,0-11.576,2.186-15.898,6.557C88.797,39.939,86.636,45.273,86.636,51.621z M122.847,5.43l-15.938,10.781l-4.336-3.633
		L115.112,0L122.847,5.43z"/>
	<path fill="#FFFFFF" d="M153.388,81.953V17.539l43.984,46.016V21.641h9.102v63.984l-43.984-45.898v42.227H153.388z"/>
	<path fill="#FFFFFF" d="M231.469,21.641v60.312h-9.102V21.641H231.469z"/>
	<path fill="#FFFFFF" d="M291.971,24.863v10.762c-5.261-4.4-10.703-6.602-16.328-6.602c-6.198,0-11.42,2.227-15.664,6.68
		c-4.271,4.428-6.406,9.844-6.406,16.25c0,6.328,2.135,11.667,6.406,16.016c4.271,4.35,9.505,6.523,15.703,6.523
		c3.203,0,5.924-0.521,8.164-1.562c1.25-0.521,2.545-1.224,3.887-2.109c1.341-0.885,2.754-1.953,4.238-3.203v10.996
		c-5.209,2.956-10.678,4.434-16.406,4.434c-8.62,0-15.977-3.008-22.07-9.023c-6.068-6.067-9.102-13.385-9.102-21.953
		c0-7.682,2.539-14.531,7.617-20.547c6.25-7.369,14.336-11.055,24.258-11.055C281.684,20.469,286.918,21.934,291.971,24.863z"/>
	<path fill="#FFFFFF" d="M341.771,67.305h-25.82l-6.719,14.648h-9.805l29.844-64.102l28.789,64.102h-9.961L341.771,67.305z
		 M338.06,58.75l-8.945-20.508l-9.375,20.508H338.06z"/>
	<path fill="#FFFFFF" d="M416.877,48.398l10.859,13.125l0.352-0.391c1.172-1.275,2.278-2.525,3.32-3.75
		c1.041-1.224,2.044-2.461,3.008-3.711l5.938,6.094c-0.729,1.042-1.687,2.253-2.871,3.633c-1.186,1.381-2.598,2.969-4.238,4.766
		l11.172,13.789h-11.328l-6.016-7.383c-5.521,5.703-11.264,8.555-17.227,8.555c-5.339,0-9.87-1.705-13.594-5.117
		c-3.646-3.438-5.469-7.682-5.469-12.734c0-6.016,2.891-11.016,8.672-15l3.945-2.695c0.052-0.025,0.143-0.091,0.273-0.195
		c0.13-0.104,0.312-0.247,0.547-0.43c-3.984-4.244-5.977-8.424-5.977-12.539c0-4.062,1.328-7.369,3.984-9.922
		c2.708-2.552,6.197-3.828,10.469-3.828c4.141,0,7.564,1.237,10.273,3.711c2.708,2.475,4.062,5.6,4.062,9.375
		c0,2.604-0.742,4.961-2.227,7.07C423.348,42.93,420.705,45.456,416.877,48.398z M409.65,53.516l-0.508,0.352
		c-3.725,2.578-6.264,4.648-7.617,6.211c-1.328,1.562-1.992,3.217-1.992,4.961c0,2.5,1.002,4.792,3.008,6.875
		c2.083,2.006,4.375,3.008,6.875,3.008c3.516,0,7.564-2.305,12.148-6.914L409.65,53.516z M411.604,41.992l0.742-0.547
		c1.275-0.963,2.33-1.803,3.164-2.52c0.833-0.716,1.432-1.321,1.797-1.816c0.781-0.963,1.172-2.148,1.172-3.555
		c0-1.588-0.534-2.877-1.602-3.867c-1.068-0.989-2.5-1.484-4.297-1.484c-1.641,0-3.021,0.508-4.141,1.523
		c-1.12,0.964-1.68,2.201-1.68,3.711c0,1.771,0.703,3.516,2.109,5.234l2.266,2.734C411.213,41.537,411.369,41.732,411.604,41.992z"
		/>
	<path fill="#FFFFFF" d="M479.21,81.953V21.641h9.062c4.036,0,7.252,0.312,9.648,0.938c2.422,0.625,4.466,1.68,6.133,3.164
		c1.692,1.537,3.033,3.451,4.023,5.742c1.016,2.318,1.523,4.662,1.523,7.031c0,4.323-1.654,7.982-4.961,10.977
		c3.203,1.094,5.729,3.008,7.578,5.742c1.875,2.709,2.812,5.859,2.812,9.453c0,4.714-1.667,8.698-5,11.953
		c-2.006,2.006-4.258,3.398-6.758,4.18c-2.734,0.756-6.159,1.133-10.273,1.133H479.21z M488.312,47.539h2.852
		c3.385,0,5.865-0.748,7.441-2.246c1.575-1.497,2.363-3.704,2.363-6.621c0-2.838-0.808-4.993-2.422-6.465
		c-1.615-1.471-3.959-2.207-7.031-2.207h-3.203V47.539z M488.312,73.398h5.625c4.114,0,7.135-0.807,9.062-2.422
		c2.031-1.744,3.047-3.958,3.047-6.641c0-2.604-0.977-4.791-2.93-6.562c-1.901-1.744-5.3-2.617-10.195-2.617h-4.609V73.398z"/>
	<path fill="#FFFFFF" d="M524.479,51.523c0-8.489,3.111-15.781,9.336-21.875c6.197-6.094,13.646-9.141,22.344-9.141
		c8.594,0,15.963,3.073,22.109,9.219c6.172,6.146,9.258,13.529,9.258,22.148c0,8.672-3.1,16.029-9.297,22.07
		c-6.225,6.068-13.737,9.102-22.539,9.102c-7.787,0-14.779-2.695-20.977-8.086C527.89,68.998,524.479,61.186,524.479,51.523z
		 M533.658,51.621c0,6.661,2.239,12.139,6.719,16.432c4.453,4.293,9.596,6.439,15.43,6.439c6.328,0,11.666-2.186,16.016-6.557
		c4.349-4.423,6.523-9.81,6.523-16.158c0-6.426-2.148-11.812-6.445-16.158c-4.271-4.372-9.558-6.557-15.859-6.557
		c-6.276,0-11.576,2.186-15.898,6.557C535.819,39.939,533.658,45.273,533.658,51.621z"/>
	<path fill="#FFFFFF" d="M620.84,56.25l18.672,25.703h-11.133l-17.227-24.688h-1.641v24.688h-9.102V21.641h10.664
		c7.969,0,13.724,1.498,17.266,4.492c3.906,3.334,5.859,7.734,5.859,13.203c0,4.271-1.225,7.943-3.672,11.016
		C628.079,53.425,624.85,55.391,620.84,56.25z M609.512,49.336h2.891c8.619,0,12.93-3.294,12.93-9.883
		c0-6.172-4.193-9.258-12.578-9.258h-3.242V49.336z"/>
	<path fill="#FFFFFF" d="M659.116,21.641v60.312h-9.102V21.641H659.116z"/>
	<path fill="#FFFFFF" d="M709.149,30.586l-7.383,4.375c-1.381-2.396-2.695-3.958-3.945-4.688c-1.303-0.833-2.982-1.25-5.039-1.25
		c-2.526,0-4.623,0.717-6.289,2.15c-1.667,1.407-2.5,3.179-2.5,5.316c0,2.945,2.188,5.316,6.562,7.114l6.016,2.463
		c4.896,1.981,8.477,4.398,10.742,7.251c2.266,2.854,3.398,6.353,3.398,10.496c0,5.551-1.85,10.138-5.547,13.76
		c-3.725,3.649-8.347,5.473-13.867,5.473c-5.234,0-9.558-1.557-12.969-4.67c-3.359-3.11-5.456-7.479-6.289-13.104l9.219-2.031
		c0.416,3.542,1.146,5.99,2.188,7.344c1.875,2.604,4.609,3.906,8.203,3.906c2.838,0,5.195-0.949,7.07-2.849s2.812-4.307,2.812-7.222
		c0-1.171-0.163-2.244-0.488-3.221c-0.326-0.976-0.834-1.874-1.523-2.693c-0.69-0.819-1.582-1.588-2.676-2.303
		c-1.094-0.716-2.396-1.399-3.906-2.05l-5.82-2.42c-8.256-3.487-12.383-8.588-12.383-15.302c0-4.527,1.731-8.314,5.195-11.358
		c3.463-3.071,7.773-4.606,12.93-4.606C699.813,20.469,705.243,23.842,709.149,30.586z"/>
</g>
</svg>
