<?xml version="1.0" encoding="utf-8"?>
<!-- Generator: Adobe Illustrator 16.0.0, SVG Export Plug-In . SVG Version: 6.00 Build 0)  -->
<!DOCTYPE svg PUBLIC "-//W3C//DTD SVG 1.1//EN" "http://www.w3.org/Graphics/SVG/1.1/DTD/svg11.dtd">
<svg version="1.1" id="Layer_1" xmlns="http://www.w3.org/2000/svg" xmlns:xlink="http://www.w3.org/1999/xlink" x="0px" y="0px"
	 width="175.787px" height="58.436px" viewBox="0 0 175.787 58.436" enable-background="new 0 0 175.787 58.436"
	 xml:space="preserve">
<g>
	<path fill="#65DBE3" d="M34.851,5.707l3.515-4.989h2.684l0.341,19.315h-3.402c-1.764-5.544-4.271-9.695-7.521-12.455
		c-3.251-2.76-6.842-4.14-10.772-4.14c-3.352,0-6.08,0.912-8.184,2.736C9.408,8,8.356,10.183,8.356,12.725
		c0,1.511,0.415,2.896,1.246,4.153c0.83,1.259,2.171,2.335,4.021,3.228c1.851,0.895,5.091,1.818,9.722,2.772
		c5.411,1.131,9.151,2.148,11.223,3.057c3.282,1.461,5.744,3.396,7.387,5.801c1.641,2.406,2.462,5.335,2.462,8.787
		c0,5.165-1.776,9.284-5.329,12.358c-4.284,3.703-9.589,5.555-15.913,5.555c-5.821,0-11.139-2.027-15.951-6.085l-4.427,5.52H0
		V37.156h3.326c3.297,11.817,9.992,17.728,20.086,17.728c4.128,0,7.337-0.95,9.627-2.852c2.291-1.901,3.437-4.274,3.437-7.119
		c0-1.989-0.504-3.658-1.511-5.005c-1.006-1.348-2.566-2.437-4.68-3.269c-1.158-0.453-4.027-1.171-8.606-2.153
		c-6.166-1.358-10.564-2.764-13.196-4.212c-2.633-1.447-4.565-3.224-5.8-5.325c-1.235-2.103-1.851-4.665-1.851-7.688
		c0-5.087,1.706-9.236,5.121-12.446C9.367,1.605,13.947,0,19.693,0C25.212,0,30.264,1.902,34.851,5.707z"/>
	<path fill="#65DBE3" d="M57.334,1.398h29.181c4.737,0,8.599,0.61,11.585,1.832c2.985,1.222,5.209,2.883,6.672,4.985
		c1.461,2.103,2.19,4.438,2.19,7.007c0,4.104-1.839,7.429-5.519,9.972c-2.797,1.939-7.105,3.199-12.928,3.777
		c2.92,0.48,5.168,1.245,6.74,2.294c1.573,1.049,2.965,2.608,4.174,4.68c1.59,2.723,2.891,5.985,3.9,9.79
		c0.632,2.444,1.188,3.982,1.666,4.611c0.479,0.631,1.021,0.945,1.625,0.945c1.663,0,2.658-2.205,2.986-6.615h3.326
		c-0.252,4.688-1.299,8.046-3.139,10.073c-1.839,2.028-4.436,3.043-7.786,3.043c-2.396,0-4.315-0.491-5.764-1.475
		c-1.45-0.982-2.552-2.419-3.308-4.31c-0.455-1.083-1.084-3.628-1.891-7.635c-0.934-4.688-1.771-7.837-2.514-9.45
		c-0.744-1.613-1.708-2.809-2.892-3.591c-1.186-0.78-2.646-1.171-4.385-1.171h-4.12v20.6c0,0.907,0.265,1.601,0.794,2.079
		c0.756,0.63,1.638,0.944,2.646,0.944h5.065V57.3H57.334v-3.516h4.385c1.134,0,1.99-0.297,2.57-0.889
		c0.579-0.592,0.869-1.418,0.869-2.476V8.277c0-1.157-0.265-2.009-0.793-2.551c-0.529-0.542-1.285-0.812-2.269-0.812h-4.763
		L57.334,1.398L57.334,1.398z M77.141,26.761h4.725c4.183,0,7.484-1.07,9.902-3.213c1.814-1.638,2.723-4.396,2.723-8.277
		c0-3.578-0.896-6.191-2.684-7.844c-1.791-1.649-4.891-2.476-9.3-2.476c-2.369,0-3.855,0.259-4.46,0.774
		c-0.605,0.517-0.907,1.669-0.907,3.458V26.761z"/>
	<path fill="#65DBE3" d="M168.267,5.632l2.607-5.557h2.797l0.944,22.414h-3.478c-1.084-6.45-3.125-11.238-6.123-14.363
		c-3-3.124-6.427-4.688-10.281-4.688c-4.233,0-7.735,2.016-10.508,6.043c-2.771,4.029-4.158,10.389-4.158,19.074
		c0,9.191,1.524,16.015,4.574,20.472c2.443,3.5,6.047,5.25,10.811,5.25c4.763,0,8.77-1.752,12.02-5.254
		c2.344-2.545,3.981-6.3,4.914-11.265h3.401c-0.808,6.376-3.238,11.415-7.295,15.119c-4.058,3.705-9.048,5.557-14.968,5.557
		c-7.662,0-14.08-2.7-19.258-8.103c-5.18-5.401-7.769-12.32-7.769-20.756c0-9.368,2.985-16.849,8.958-22.438
		C140.547,2.38,146.506,0,153.335,0c2.695,0,5.197,0.422,7.503,1.266S165.62,3.565,168.267,5.632z"/>
</g>
</svg>
