<?xml version="1.0" encoding="utf-8"?>
<!-- Generator: Adobe Illustrator 16.0.0, SVG Export Plug-In . SVG Version: 6.00 Build 0)  -->
<!DOCTYPE svg PUBLIC "-//W3C//DTD SVG 1.1//EN" "http://www.w3.org/Graphics/SVG/1.1/DTD/svg11.dtd">
<svg version="1.1" id="Layer_1" xmlns="http://www.w3.org/2000/svg" xmlns:xlink="http://www.w3.org/1999/xlink" x="0px" y="0px"
	 width="408.156px" height="134.415px" viewBox="0 0 408.156 134.415" enable-background="new 0 0 408.156 134.415"
	 xml:space="preserve">
<g>
	<g>
		<path fill="#FFFFFF" d="M34.787,12.11v33.843h-1.776V16.238L18.417,40.241L3.776,16.238v29.715H2V12.11h1.2l15.217,24.867
			L33.635,12.11H34.787z"/>
		<polygon fill="#FFFFFF" points="36.787,47.954 31.011,47.954 31.011,23.377 18.42,44.085 5.776,23.358 5.776,47.954 0,47.954 
			0,10.11 1.776,10.11 2.381,10.11 4.321,10.11 18.417,33.145 32.514,10.11 34.396,10.11 35.011,10.11 36.787,10.11 		"/>
	</g>
	<g>
		<path fill="#FFFFFF" d="M77.747,29.055c0,9.41-7.921,17.09-17.762,17.09s-17.81-7.68-17.81-17.09
			c0-9.409,7.969-17.089,17.81-17.089S77.747,19.646,77.747,29.055z M75.923,29.055c0-8.448-7.104-15.361-15.938-15.361
			C51.2,13.694,44,20.607,44,29.055c0,8.449,7.2,15.314,15.985,15.314C68.818,44.37,75.923,37.504,75.923,29.055z M60.466,9.566
			h-1.681l7.44-7.489l2.112,0.192L60.466,9.566z"/>
		<path fill="#FFFFFF" d="M59.985,48.145c-10.923,0-19.81-8.563-19.81-19.09c0-8.849,6.281-16.311,14.772-18.464L65.47,0l7.52,0.685
			l-10.217,9.47c9.582,1.312,16.975,9.288,16.975,18.9C79.747,39.582,70.882,48.145,59.985,48.145z M59.985,15.694
			C52.273,15.694,46,21.688,46,29.055c0,7.342,6.273,13.314,13.985,13.314c7.686,0,13.938-5.973,13.938-13.314
			C73.923,21.688,67.671,15.694,59.985,15.694z"/>
	</g>
	<g>
		<path fill="#FFFFFF" d="M112.882,12.11v33.843h-1.152L86.912,15.519v30.435h-1.776V12.11h1.2l24.77,30.435V12.11H112.882z"/>
		<polygon fill="#FFFFFF" points="112.882,47.954 110.779,47.954 88.912,21.136 88.912,47.954 83.136,47.954 83.136,10.11 
			84.912,10.11 85.136,10.11 87.287,10.11 109.105,36.919 109.105,10.11 114.882,10.11 114.882,47.954 113.105,47.954 		"/>
	</g>
	<g>
		<path fill="#FFFFFF" d="M123.823,45.954h-1.776V12.11h1.776V45.954z"/>
		<rect x="120.047" y="10.11" fill="#FFFFFF" width="5.776" height="37.843"/>
	</g>
	<g>
		<path fill="#FFFFFF" d="M161.312,38.561l1.393,1.199c-3.265,3.889-8.209,6.385-13.777,6.385c-9.745,0-17.714-7.68-17.714-17.09
			c0-9.409,7.969-17.137,17.714-17.137c5.568,0,10.513,2.545,13.777,6.433l-1.393,1.2c-2.88-3.504-7.345-5.856-12.385-5.856
			c-8.737,0-15.842,6.864-15.842,15.361c0,8.498,7.104,15.314,15.842,15.314C153.968,44.37,158.433,42.065,161.312,38.561z"/>
		<path fill="#FFFFFF" d="M148.928,48.145c-10.87,0-19.714-8.563-19.714-19.09c0-10.552,8.844-19.137,19.714-19.137
			c5.915,0,11.495,2.605,15.309,7.146l1.271,1.512l-4.439,3.826l-1.3-1.582c-2.678-3.258-6.629-5.126-10.84-5.126
			c-7.633,0-13.842,5.994-13.842,13.361c0,7.342,6.209,13.314,13.842,13.314c4.236,0,8.187-1.851,10.84-5.078l1.299-1.581
			l4.44,3.823l-1.27,1.513C160.449,45.557,154.869,48.145,148.928,48.145z"/>
	</g>
	<g>
		<path fill="#FFFFFF" d="M191.743,36.161h-19.346l-4.32,9.793h-1.92l15.265-33.843h1.345l15.217,33.843h-1.872L191.743,36.161z
			 M173.069,34.624h18.05l-9.073-20.353L173.069,34.624z"/>
		<path fill="#FFFFFF" d="M201.075,47.954h-6.262l-4.368-9.793h-16.744l-4.32,9.793h-6.319L180.13,10.11h1.565h0.686h1.68
			L201.075,47.954z M176.138,32.624h11.9l-5.982-13.419L176.138,32.624z"/>
	</g>
	<g>
		<path fill="#FFFFFF" d="M241.903,28.864h-11.137V40h-1.44V28.864h-11.137v-1.44h11.137V16.286h1.44v11.138h11.137V28.864z"/>
		<polygon fill="#FFFFFF" points="232.767,42 227.326,42 227.326,30.864 216.189,30.864 216.189,25.424 227.326,25.424 
			227.326,14.286 232.767,14.286 232.767,25.424 243.903,25.424 243.903,30.864 232.767,30.864 		"/>
	</g>
	<g>
		<path fill="#FFFFFF" d="M282.559,24.352c5.904,0.576,9.169,5.665,9.169,10.897c0,5.615-3.553,10.705-10.226,10.705h-16.129V12.11
			h12.049c4.272,0,7.681,2.88,7.681,6.721C285.103,20.703,284.383,23.055,282.559,24.352z M267.149,24.207h11.713
			c3.36,0,4.512-3.072,4.512-5.185c0-3.072-2.735-5.232-6.192-5.232h-10.032V24.207z M281.07,44.274
			c5.809,0,8.785-4.322,8.785-9.121c0-4.754-2.977-9.362-8.785-9.362h-13.921v18.483H281.07z"/>
		<path fill="#FFFFFF" d="M281.502,47.954h-18.129V10.11h14.049c5.429,0,9.681,3.831,9.681,8.721c0,1.315-0.293,2.891-1.013,4.33
			c5.027,2.01,7.638,7.201,7.638,12.088C293.728,42.729,288.7,47.954,281.502,47.954z M269.149,42.274h11.921
			c5.008,0,6.785-3.836,6.785-7.121c0-3.664-2.098-7.361-6.785-7.361h-11.921V42.274z M269.149,22.207h9.713
			c2.441,0,2.512-2.858,2.512-3.185c0-2.122-2.109-3.232-4.192-3.232h-8.032V22.207z"/>
	</g>
	<g>
		<path fill="#FFFFFF" d="M332.527,29.055c0,9.41-7.921,17.09-17.762,17.09s-17.81-7.68-17.81-17.09
			c0-9.409,7.969-17.089,17.81-17.089S332.527,19.646,332.527,29.055z M330.703,29.055c0-8.448-7.104-15.361-15.938-15.361
			c-8.785,0-15.985,6.913-15.985,15.361c0,8.449,7.2,15.314,15.985,15.314C323.599,44.37,330.703,37.504,330.703,29.055z"/>
		<path fill="#FFFFFF" d="M314.766,48.145c-10.923,0-19.81-8.563-19.81-19.09c0-10.526,8.887-19.089,19.81-19.089
			c10.896,0,19.762,8.563,19.762,19.089C334.527,39.582,325.662,48.145,314.766,48.145z M314.766,15.694
			c-7.712,0-13.985,5.994-13.985,13.361c0,7.342,6.273,13.314,13.985,13.314c7.686,0,13.938-5.973,13.938-13.314
			C328.703,21.688,322.451,15.694,314.766,15.694z"/>
	</g>
	<g>
		<path fill="#FFFFFF" d="M354.701,34.145c-0.96,0.096-2.017,0.143-3.024,0.143h-9.984v11.666h-1.776V12.11h13.009
			c8.737,0,11.761,5.185,11.761,10.801c0,6.193-3.168,9.648-8.16,10.849l9.072,12.193h-2.208L354.701,34.145z M341.692,32.657h9.937
			c6.625,0,11.185-2.832,11.185-9.698c0-4.8-2.592-9.169-9.984-9.169h-11.137V32.657z"/>
		<path fill="#FFFFFF" d="M369.578,47.954h-7.2l-8.629-11.728c-0.673,0.041-1.374,0.062-2.072,0.062h-7.984v11.666h-5.776V10.11
			h15.009c12.769,0,13.761,9.798,13.761,12.801c0,5.672-2.434,9.788-6.924,11.848L369.578,47.954z M343.692,30.657h7.937
			c9.185,0,9.185-5.794,9.185-7.698c0-3.271-1.385-7.169-7.984-7.169h-9.137V30.657z"/>
	</g>
	<g>
		<path fill="#FFFFFF" d="M373.852,45.954h-1.776V12.11h1.776V45.954z"/>
		<rect x="370.075" y="10.11" fill="#FFFFFF" width="5.776" height="37.843"/>
	</g>
	<g>
		<path fill="#FFFFFF" d="M406.156,37.264c0,5.713-4.849,9.025-12.049,9.025c-5.328,0-7.488-0.385-12.865-3.072l0.72-1.488
			c5.089,2.496,7.153,2.881,12.146,2.881c6.145,0,10.225-2.689,10.225-7.297c0-4.561-4.752-6.049-10.369-7.441
			c-6.72-1.633-12.48-3.457-12.48-9.216c0-5.137,4.368-8.737,11.473-8.737c3.841,0,8.833,1.008,11.761,2.593l-0.815,1.536
			c-2.784-1.536-7.489-2.448-10.945-2.448c-6,0-9.648,2.928-9.648,7.009c0,4.512,5.04,6.048,11.089,7.536
			C400.731,29.727,406.156,31.6,406.156,37.264z"/>
		<path fill="#FFFFFF" d="M394.107,48.29c-5.57,0-8.053-0.431-13.76-3.283l-1.766-0.883l2.455-5.076l1.806,0.886
			c4.814,2.361,6.624,2.677,11.265,2.677c1.93,0,8.225-0.382,8.225-5.297c0-2.795-2.98-4.045-8.851-5.5
			c-5.902-1.435-13.999-3.401-13.999-11.158c0-6.422,5.414-10.737,13.473-10.737c4.403,0,9.631,1.166,12.713,2.834l1.744,0.944
			l-2.698,5.083l-1.779-0.982c-2.272-1.254-6.563-2.199-9.979-2.199c-4.646,0-7.648,1.966-7.648,5.009
			c0,2.739,3.222,4.033,9.566,5.594c5.294,1.323,13.283,3.321,13.283,11.063C408.156,43.961,402.642,48.29,394.107,48.29z"/>
	</g>
</g>
<g>
	<path fill="#FFFFFF" d="M55.516,85.214V69.618h-3.549v-1.899h5.523v17.496H55.516z"/>
	<path fill="#FFFFFF" d="M74.138,72.042c0,1.8-1.074,3.124-2.849,3.824c2.274,0.675,3.674,2.249,3.674,4.449
		c0,3.124-2.475,4.998-6.424,4.998c-3.999,0-6.473-1.874-6.473-4.948c0-2.225,1.449-3.824,3.773-4.499
		c-1.824-0.725-2.924-2.074-2.924-3.874c0-2.725,2.175-4.349,5.599-4.349C71.988,67.644,74.138,69.293,74.138,72.042z M63.966,80.14
		c0,2.2,1.699,3.475,4.573,3.475c2.825,0,4.55-1.274,4.55-3.475c0-2.074-1.7-3.323-4.574-3.323
		C65.665,76.817,63.966,78.066,63.966,80.14z M64.641,72.167c0,1.875,1.449,2.975,3.898,2.975c2.425,0,3.875-1.1,3.875-2.975
		c0-1.874-1.45-2.975-3.875-2.975C66.09,69.193,64.641,70.293,64.641,72.167z"/>
	<path fill="#FFFFFF" d="M97.562,85.214h-1.95V82.39c-0.975,1.85-2.773,2.924-5.123,2.924c-3.749,0-6.349-2.774-6.349-6.698
		c0-3.949,2.6-6.673,6.323-6.673c2.35,0,4.174,1.074,5.148,2.949v-8.224h1.95V85.214z M95.612,78.666
		c0-2.874-1.974-4.948-4.748-4.948c-2.8,0-4.774,2.074-4.774,4.948c0,2.85,1.975,4.899,4.774,4.899
		C93.639,83.565,95.612,81.515,95.612,78.666z"/>
	<path fill="#FFFFFF" d="M113.787,79.391H103.04c0.35,2.574,2.224,4.198,4.773,4.198c1.625,0,3.05-0.574,4.074-1.649l1.074,1.15
		c-1.249,1.399-3.099,2.199-5.298,2.199c-3.875,0-6.549-2.725-6.549-6.648s2.699-6.648,6.523-6.648
		C111.888,71.967,113.987,74.917,113.787,79.391z M112.037,77.792c-0.125-2.524-1.824-4.124-4.398-4.124
		c-2.499,0-4.299,1.624-4.599,4.124H112.037z"/>
	<path fill="#FFFFFF" d="M131.463,79.965c0,3.399-1.875,5.349-4.999,5.349c-1.949,0-3.624-0.925-4.849-2.499l1-1.6
		c1.1,1.324,2.475,2.024,3.824,2.024c1.924,0,2.999-1.149,2.999-3.324V69.643h-6.249v-1.925h8.273V79.965z"/>
	<path fill="#FFFFFF" d="M147.486,85.214h-1.95V82.24c-0.874,2.05-2.624,3.024-4.998,3.05c-3.074,0-4.924-1.95-4.924-5.124v-8.123
		h1.949v7.599c0,2.324,1.375,3.698,3.649,3.698c2.724-0.05,4.323-2.024,4.323-4.823v-6.474h1.95V85.214z"/>
	<path fill="#FFFFFF" d="M152.363,85.214V66.668h1.95v18.546H152.363z"/>
	<path fill="#FFFFFF" d="M161.413,68.268c0,0.775-0.55,1.35-1.274,1.35s-1.274-0.574-1.274-1.35c0-0.774,0.55-1.35,1.274-1.35
		S161.413,67.494,161.413,68.268z M159.188,85.214V72.042h1.925v13.172H159.188z"/>
	<path fill="#FFFFFF" d="M177.886,78.616c0,3.949-2.774,6.674-6.674,6.674c-3.898,0-6.673-2.725-6.673-6.674
		c0-3.924,2.774-6.623,6.673-6.623C175.111,71.993,177.886,74.692,177.886,78.616z M166.488,78.641c0,2.899,1.975,4.898,4.724,4.898
		c2.75,0,4.725-1.999,4.725-4.898c0-2.874-1.975-4.874-4.725-4.874C168.463,73.767,166.488,75.767,166.488,78.641z"/>
	<path fill="#FFFFFF" d="M200.261,85.214h-1.95V82.39c-0.975,1.85-2.773,2.924-5.123,2.924c-3.749,0-6.349-2.774-6.349-6.698
		c0-3.949,2.6-6.673,6.323-6.673c2.35,0,4.174,1.074,5.148,2.949v-8.224h1.95V85.214z M198.311,78.666
		c0-2.874-1.974-4.948-4.748-4.948c-2.8,0-4.774,2.074-4.774,4.948c0,2.85,1.975,4.899,4.774,4.899
		C196.337,83.565,198.311,81.515,198.311,78.666z"/>
	<path fill="#FFFFFF" d="M216.485,79.391h-10.747c0.35,2.574,2.225,4.198,4.773,4.198c1.625,0,3.049-0.574,4.074-1.649l1.074,1.15
		c-1.249,1.399-3.099,2.199-5.299,2.199c-3.874,0-6.548-2.725-6.548-6.648s2.699-6.648,6.523-6.648
		C214.586,71.967,216.686,74.917,216.485,79.391z M214.735,77.792c-0.125-2.524-1.824-4.124-4.398-4.124
		c-2.499,0-4.299,1.624-4.599,4.124H214.735z"/>
	<path fill="#FFFFFF" d="M236.535,71.943c0,1.675-1.249,3.699-3.099,5.673l-5.374,5.699h9.473v1.899h-12.021v-1.649l6.548-7.123
		c1.475-1.475,2.399-3.1,2.399-4.225c0-1.699-1.3-2.724-3.499-2.724c-1.6,0-3.374,0.824-4.773,2.174l-0.875-1.6
		c1.699-1.524,3.824-2.424,5.898-2.424C234.436,67.644,236.535,69.318,236.535,71.943z"/>
	<path fill="#FFFFFF" d="M254.609,76.466c0,5.648-2.574,8.798-7.224,8.798c-4.648,0-7.224-3.149-7.224-8.798
		s2.575-8.798,7.224-8.798C252.035,67.668,254.609,70.818,254.609,76.466z M242.188,76.466c0,4.724,1.799,7.099,5.198,7.099
		s5.199-2.375,5.199-7.099c0-4.749-1.8-7.098-5.199-7.098S242.188,71.717,242.188,76.466z"/>
	<path fill="#FFFFFF" d="M259.911,85.214V69.618h-3.549v-1.899h5.523v17.496H259.911z"/>
	<path fill="#FFFFFF" d="M269.136,69.643v4.924c0.9-0.15,2.149-0.25,2.949-0.25c3.675,0,6.023,2.175,6.023,5.174
		c0,3.499-2.424,5.773-6.173,5.773c-1.925,0-4.249-0.75-5.898-1.899l0.824-1.699c1.45,1.1,3.3,1.749,4.874,1.749
		c2.624,0,4.249-1.449,4.249-3.799c0-2.074-1.625-3.374-4.199-3.374c-1.149,0-3.249,0.175-4.499,0.425v-8.948h10.147v1.925H269.136z
		"/>
	<path fill="#FFFFFF" d="M289.811,78.167c0,0.749-0.5,1.299-1.175,1.299s-1.175-0.55-1.175-1.299c0-0.726,0.5-1.25,1.175-1.25
		S289.811,77.441,289.811,78.167z"/>
	<path fill="#FFFFFF" d="M303.785,85.214h-2.125l7.198-15.571h-8.147v2.55h-1.8v-4.475h12.147v1.675L303.785,85.214z"/>
	<path fill="#FFFFFF" d="M327.632,78.666c0,3.899-2.549,6.624-6.273,6.624c-2.349,0-4.148-1.075-5.123-2.899v7.673h-1.95V72.042
		h1.95v2.85c0.975-1.85,2.774-2.925,5.073-2.925C325.033,71.967,327.632,74.717,327.632,78.666z M325.658,78.616
		c0-2.824-1.95-4.898-4.699-4.898c-2.774,0-4.724,2.05-4.724,4.898c0,2.875,1.949,4.899,4.724,4.899
		C323.708,83.515,325.658,81.465,325.658,78.616z"/>
	<path fill="#FFFFFF" d="M352.83,77.091v8.123h-1.95v-7.599c0-2.349-1.374-3.724-3.648-3.724c-2.725,0.075-4.3,2.024-4.3,4.849
		v6.474h-1.974v-7.599c0-2.349-1.351-3.724-3.649-3.724c-2.699,0.075-4.324,2.024-4.324,4.849v6.474h-1.925V72.042h1.925v2.975
		c0.875-2.05,2.649-3.024,5.023-3.05c2.475,0,4.175,1.275,4.725,3.449c0.824-2.324,2.674-3.424,5.198-3.449
		C351.005,71.967,352.83,73.917,352.83,77.091z"/>
	<path fill="#FFFFFF" d="M160.142,130.029V129.1h3.762v0.929H160.142z"/>
	<path fill="#FFFFFF" d="M181.153,134.415l-0.016-9.235l-4.082,8.051h-0.769l-4.065-8.051v9.235h-1.217V123.21h1.585l4.098,8.066
		l4.082-8.066h1.568v11.204H181.153z"/>
	<path fill="#FFFFFF" d="M186.718,131.582l-1.248,2.833h-1.36l5.025-11.204h1.329l5.01,11.204h-1.393l-1.249-2.833H186.718z
		 M189.759,124.667l-2.496,5.683h5.025L189.759,124.667z"/>
	<path fill="#FFFFFF" d="M201.76,123.21c3.266,0,5.763,2.417,5.763,5.602c0,3.186-2.514,5.603-5.811,5.603h-4.482V123.21H201.76z
		 M198.511,133.198h3.265c2.497,0,4.45-1.872,4.45-4.369c0-2.514-1.985-4.386-4.498-4.386h-3.217V133.198z"/>
	<path fill="#FFFFFF" d="M214.864,130.845c-0.24,0.016-0.496,0.032-0.753,0.032h-2.977v3.537h-1.281V123.21h4.258
		c2.802,0,4.418,1.376,4.418,3.761c0,1.857-0.896,3.105-2.513,3.634l2.625,3.81h-1.457L214.864,130.845z M214.111,129.645
		c2.033,0,3.186-0.896,3.186-2.642c0-1.696-1.152-2.561-3.186-2.561h-2.977v5.202H214.111z"/>
	<path fill="#FFFFFF" d="M221.421,134.415V123.21h1.281v11.204H221.421z"/>
	<path fill="#FFFFFF" d="M230.623,123.21c3.266,0,5.763,2.417,5.763,5.602c0,3.186-2.514,5.603-5.811,5.603h-4.482V123.21H230.623z
		 M227.374,133.198h3.265c2.497,0,4.45-1.872,4.45-4.369c0-2.514-1.985-4.386-4.498-4.386h-3.217V133.198z"/>
	<path fill="#FFFFFF" d="M242.429,130.029V129.1h3.762v0.929H242.429z"/>
</g>
<g>
</g>
<g>
</g>
<g>
</g>
<g>
</g>
<g>
</g>
<g>
</g>
</svg>
