<?xml version="1.0" encoding="utf-8"?>
<!-- Generator: Adobe Illustrator 16.0.0, SVG Export Plug-In . SVG Version: 6.00 Build 0)  -->
<!DOCTYPE svg PUBLIC "-//W3C//DTD SVG 1.1//EN" "http://www.w3.org/Graphics/SVG/1.1/DTD/svg11.dtd">
<svg version="1.1" id="Layer_1" xmlns="http://www.w3.org/2000/svg" xmlns:xlink="http://www.w3.org/1999/xlink" x="0px" y="0px"
	 width="81.967px" height="30px" viewBox="0 0 81.967 30" enable-background="new 0 0 81.967 30" xml:space="preserve">
<g>
	<g>
		<rect x="24.175" y="13.431" fill="#4C4C4C" width="53.814" height="3.135"/>
	</g>
	<g>
		<polygon fill="#4C4C4C" points="25.448,13.446 17.837,0.263 14.27,0.263 21.881,13.446 18.314,13.446 10.703,0.263 7.133,0.263 
			14.748,13.446 11.181,13.446 3.566,0.263 0,0.263 7.614,13.446 3.964,13.446 3.964,16.554 7.614,16.554 0,29.737 3.566,29.737 
			11.181,16.554 14.748,16.554 7.133,29.737 10.703,29.737 18.314,16.554 21.881,16.554 14.27,29.737 17.837,29.737 25.448,16.554 
					"/>
	</g>
	<g>
		<polygon fill="#4C4C4C" points="65.835,30 63.333,27.314 76.582,15.002 63.333,2.687 65.835,0 81.967,15.002 		"/>
	</g>
</g>
</svg>
