<?xml version="1.0" encoding="utf-8"?>
<!-- Generator: Adobe Illustrator 16.0.0, SVG Export Plug-In . SVG Version: 6.00 Build 0)  -->
<!DOCTYPE svg PUBLIC "-//W3C//DTD SVG 1.1//EN" "http://www.w3.org/Graphics/SVG/1.1/DTD/svg11.dtd">
<svg version="1.1" id="Layer_1" xmlns="http://www.w3.org/2000/svg" xmlns:xlink="http://www.w3.org/1999/xlink" x="0px" y="0px"
	 width="81.967px" height="30px" viewBox="0 0 81.967 30" enable-background="new 0 0 81.967 30" xml:space="preserve">
<g>
	<g>
		<rect x="3.978" y="13.431" fill="#75DBD1" width="53.814" height="3.135"/>
	</g>
	<g>
		<polygon fill="#75DBD1" points="56.519,13.446 64.13,0.263 67.696,0.263 60.086,13.446 63.653,13.446 71.265,0.263 74.833,0.263 
			67.22,13.446 70.786,13.446 78.399,0.263 81.967,0.263 74.353,13.446 78.002,13.446 78.002,16.555 74.353,16.555 81.967,29.736 
			78.399,29.736 70.786,16.555 67.22,16.555 74.833,29.736 71.265,29.736 63.653,16.555 60.086,16.555 67.696,29.736 64.13,29.736 
			56.519,16.555 		"/>
	</g>
	<g>
		<polygon fill="#75DBD1" points="16.132,30 18.634,27.314 5.385,15.002 18.634,2.687 16.132,0 0,15.002 		"/>
	</g>
</g>
</svg>
