<?xml version="1.0" encoding="utf-8"?>
<!-- Generator: Adobe Illustrator 16.0.0, SVG Export Plug-In . SVG Version: 6.00 Build 0)  -->
<!DOCTYPE svg PUBLIC "-//W3C//DTD SVG 1.1//EN" "http://www.w3.org/Graphics/SVG/1.1/DTD/svg11.dtd">
<svg version="1.1" id="Layer_1" xmlns="http://www.w3.org/2000/svg" xmlns:xlink="http://www.w3.org/1999/xlink" x="0px" y="0px"
	 width="81.967px" height="30px" viewBox="0 0 81.967 30" enable-background="new 0 0 81.967 30" xml:space="preserve">
<g>
	<g>
		<rect x="3.978" y="13.431" fill="#4C4C4C" width="53.814" height="3.135"/>
	</g>
	<g>
		<polygon fill="#4C4C4C" points="56.519,13.446 64.13,0.263 67.697,0.263 60.086,13.446 63.653,13.446 71.264,0.263 74.833,0.263 
			67.219,13.446 70.786,13.446 78.4,0.263 81.967,0.263 74.353,13.446 78.002,13.446 78.002,16.554 74.353,16.554 81.967,29.737 
			78.4,29.737 70.786,16.554 67.219,16.554 74.833,29.737 71.264,29.737 63.653,16.554 60.086,16.554 67.697,29.737 64.13,29.737 
			56.519,16.554 		"/>
	</g>
	<g>
		<polygon fill="#4C4C4C" points="16.132,30 18.634,27.314 5.385,15.002 18.634,2.687 16.132,0 0,15.002 		"/>
	</g>
</g>
</svg>
