<?xml version="1.0" encoding="utf-8"?>
<!-- Generator: Adobe Illustrator 16.0.0, SVG Export Plug-In . SVG Version: 6.00 Build 0)  -->
<!DOCTYPE svg PUBLIC "-//W3C//DTD SVG 1.1//EN" "http://www.w3.org/Graphics/SVG/1.1/DTD/svg11.dtd">
<svg version="1.1" id="Layer_1" xmlns="http://www.w3.org/2000/svg" xmlns:xlink="http://www.w3.org/1999/xlink" x="0px" y="0px"
	 width="530.246px" height="73.881px" viewBox="0 0 530.246 73.881" enable-background="new 0 0 530.246 73.881"
	 xml:space="preserve">
<g>
	<path fill="#333333" d="M25.836,63.094c0,5.893,0.363,8.884,3.989,8.884v0.544H0v-0.544c7.071,0,7.706-2.176,7.706-8.884V34.085
		c0-6.708-0.635-8.612-7.706-8.612v-0.634h25.836v8.068c3.173-7.343,9.156-8.612,13.779-8.612c3.082,0,9.156,0.544,12.057,4.351
		c0.453,0.726,1.451,1.813,1.995,3.083c1.541-3.717,5.711-7.434,13.416-7.434c11.422,0,15.773,6.255,15.773,16.589v22.21
		c0,6.708,0.635,8.884,7.706,8.884v0.544H60.737v-0.544c3.626,0,3.989-2.991,3.989-8.884V38.89c0-7.706-0.998-11.15-5.077-11.15
		c-0.635,0-1.179,0.09-1.723,0.362c-2.447,1.179-3.535,2.811-3.535,7.343v27.649c0,5.893,0.362,8.884,3.989,8.884v0.544H32.182
		v-0.544c3.626,0,3.989-2.991,3.989-8.884V39.978c0-9.428-1.088-11.604-4.442-11.604c-2.538,0-4.532,2.811-5.258,5.258
		c-0.635,2.085-0.635,4.805-0.635,8.34V63.094z"/>
	<path fill="#333333" d="M139.882,66.72c0,1.45,0,3.989,1.45,3.989c1.27,0,4.352-2.629,4.624-12.239h0.635
		c0,2.176-0.544,10.788-4.715,12.963c-2.085,1.179-4.804,1.723-7.343,1.723c-1.812,0-3.444-0.271-4.805-0.816
		c-5.076-1.994-6.617-4.079-8.067-9.428c-1.904,5.983-4.623,8.431-7.162,9.428c-1.359,0.545-2.991,0.635-4.985,0.635
		c-7.706,0-15.593-2.176-15.593-12.057c0-1.45,0.272-2.901,0.635-4.17c1.994-6.437,6.074-7.071,12.329-8.159l2.176-0.363
		c12.057-1.994,12.601-8.25,12.601-13.598c0-8.793-3.082-9.519-6.527-9.519c-1.903,0-7.524,0.272-9.337,4.714
		c0.544-0.272,1.269-0.363,1.994-0.363c3.264,0,7.615,2.448,7.615,7.524c0,5.439-4.714,8.884-9.156,8.884s-8.793-3.536-8.793-9.065
		c0-7.524,9.428-12.51,20.759-12.51c5.53,0,11.423,1.178,15.411,3.989c5.983,4.17,6.255,9.609,6.255,14.776V66.72z M111.87,54.845
		c-0.271,1.813-0.362,3.354-0.362,4.805c0,2.085,0.182,3.989,0.362,6.164c0.091,1.814,0.272,5.258,2.539,5.258
		c0.634,0,1.359-0.182,1.812-0.635c5.167-3.354,5.349-11.422,5.349-18.312V40.431c-0.362,2.175-1.813,3.717-2.72,4.351
		C112.958,49.134,112.505,49.768,111.87,54.845z"/>
	<path fill="#333333" d="M182.31,72.522h-33.633v-0.544c7.071,0,7.706-2.176,7.706-8.884V34.085c0-6.708-0.635-8.612-7.706-8.612
		v-0.634h26.018v38.255c0,6.708,0.544,8.884,7.615,8.884V72.522z M164.723,3.808c5.439,0,9.972,3.988,9.972,8.793
		s-4.532,8.793-9.972,8.793s-9.881-3.989-9.881-8.793S159.283,3.808,164.723,3.808z"/>
	<path fill="#333333" d="M190.378,58.471V25.473h-4.714v-0.634c5.983-0.272,10.697-2.357,14.776-5.167
		c2.901-1.994,7.071-5.53,7.706-12.147h0.544v17.315h8.249v0.634h-8.249v35.536c0,7.796,0.362,8.521,2.085,8.521
		c0.725,0,2.266-0.271,3.626-3.625c0.815-1.994,1.541-6.618,1.541-10.969h0.635c0,2.81-0.363,5.711-0.907,8.431
		c-0.725,3.626-2.085,9.609-12.51,9.609C192.373,72.975,190.378,68.534,190.378,58.471z"/>
	<path fill="#333333" d="M253.837,72.522h-33.633v-0.544c7.071,0,7.706-2.176,7.706-8.884V34.085c0-6.708-0.635-8.612-7.706-8.612
		v-0.634h26.018v38.255c0,6.708,0.544,8.884,7.615,8.884V72.522z M236.25,3.808c5.439,0,9.972,3.988,9.972,8.793
		s-4.532,8.793-9.972,8.793s-9.881-3.989-9.881-8.793S230.811,3.808,236.25,3.808z"/>
	<path fill="#333333" d="M303.152,66.72c0,1.45,0,3.989,1.45,3.989c1.27,0,4.352-2.629,4.624-12.239h0.634
		c0,2.176-0.543,10.788-4.714,12.963c-2.085,1.179-4.804,1.723-7.343,1.723c-1.812,0-3.444-0.271-4.805-0.816
		c-5.076-1.994-6.617-4.079-8.067-9.428c-1.904,5.983-4.623,8.431-7.162,9.428c-1.359,0.545-2.991,0.635-4.985,0.635
		c-7.706,0-15.593-2.176-15.593-12.057c0-1.45,0.272-2.901,0.635-4.17c1.994-6.437,6.074-7.071,12.329-8.159l2.176-0.363
		c12.057-1.994,12.601-8.25,12.601-13.598c0-8.793-3.082-9.519-6.527-9.519c-1.903,0-7.524,0.272-9.337,4.714
		c0.544-0.272,1.269-0.363,1.994-0.363c3.264,0,7.615,2.448,7.615,7.524c0,5.439-4.714,8.884-9.156,8.884s-8.793-3.536-8.793-9.065
		c0-7.524,9.428-12.51,20.759-12.51c5.53,0,11.423,1.178,15.411,3.989c5.983,4.17,6.255,9.609,6.255,14.776V66.72z M275.141,54.845
		c-0.271,1.813-0.362,3.354-0.362,4.805c0,2.085,0.182,3.989,0.362,6.164c0.091,1.814,0.272,5.258,2.539,5.258
		c0.634,0,1.359-0.182,1.812-0.635c5.167-3.354,5.349-11.422,5.349-18.312V40.431c-0.362,2.175-1.813,3.717-2.72,4.351
		C276.229,49.134,275.775,49.768,275.141,54.845z"/>
	<path fill="#333333" d="M383.563,21.847c5.348,0,10.696,3.717,10.696,10.969c0,5.711-4.079,10.788-10.425,10.788
		c-7.071,0-10.334-5.258-10.334-10.062c0-4.533,2.9-7.071,2.991-7.434c-6.255,2.629-9.428,12.691-10.606,16.136
		c4.896,5.439,14.323,14.595,20.94,14.595c2.085,0,6.799-0.997,6.799-7.343c0-0.997-0.181-1.903-0.181-2.629h0.635
		c0.181,1.088,0.271,2.176,0.271,3.264c0,10.969-9.246,22.935-20.306,22.935c-6.709,0-12.42-4.352-18.766-10.606
		c-6.346,8.431-13.87,11.422-20.94,11.422c-11.513,0-20.125-7.252-20.125-17.405c0-9.247,6.164-17.677,18.675-23.026
		c-2.901-4.261-4.714-9.065-4.714-13.96c0-10.244,8.884-19.49,19.218-19.49c7.887,0,20.669,1.451,20.669,10.969
		c0,6.074-5.439,11.875-14.686,15.139c2.991,4.714,6.437,9.7,11.784,15.32C368.877,29.009,376.22,21.847,383.563,21.847z
		 M333.251,34.176c-2.538,0.998-5.258,1.813-5.258,5.349c0,5.077,5.167,13.417,8.793,18.04c2.992,3.807,8.794,9.247,11.876,9.247
		c2.266,0,4.261-2.811,5.892-4.896C346.214,52.851,339.506,43.422,333.251,34.176z M357.273,21.122
		c0-4.261-5.258-14.958-7.252-17.677c-1.45-1.904-2.72-2.81-3.988-2.81c-1.541,0-3.717,1.269-3.717,3.445
		c0,5.167,8.158,17.949,10.696,21.394C353.829,25.201,357.273,23.932,357.273,21.122z"/>
	<path fill="#333333" d="M429.618,72.25c9.881,0,15.501-10.425,16.498-19.582h0.635c-0.544,4.714-2.447,13.688-9.972,18.221
		c-2.538,1.541-6.255,2.176-10.153,2.176c-21.122,0-26.38-15.048-26.38-23.57c0-13.054,11.876-25.201,27.649-25.201
		c5.167,0,8.34,1.269,12.238,4.623c2.538,2.176,5.258,5.802,5.258,9.609c0,3.626-1.994,10.516-9.882,10.516
		c-5.802,0-10.334-3.898-10.334-9.791c0-5.53,3.898-9.247,10.153-9.247c1.903,0,3.444,0.363,4.261,0.816
		c-0.997-3.264-5.711-5.711-10.606-5.711c-7.706,0-9.609,8.884-9.609,25.201C419.374,59.74,419.646,72.25,429.618,72.25z"/>
	<path fill="#333333" d="M477.756,24.295c13.507,0,24.93,10.878,24.93,24.385c0,13.507-11.423,24.386-24.93,24.386
		s-24.93-10.878-24.93-24.386C452.826,35.173,464.249,24.295,477.756,24.295z M483.739,35.354c0-7.524-2.267-10.425-5.983-10.425
		c-3.626,0-5.893,2.901-5.893,10.425v26.652c0,7.523,2.267,10.425,5.893,10.425c3.717,0,5.983-2.901,5.983-10.425V35.354z"/>
	<path fill="#333333" d="M519.641,51.309c5.892,0,10.605,4.714,10.605,10.516c0,5.802-4.714,10.515-10.605,10.515
		c-5.802,0-10.426-4.713-10.426-10.515C509.215,56.023,513.839,51.309,519.641,51.309z"/>
</g>
</svg>
