<?xml version="1.0" encoding="utf-8"?>
<!-- Generator: Adobe Illustrator 16.0.0, SVG Export Plug-In . SVG Version: 6.00 Build 0)  -->
<!DOCTYPE svg PUBLIC "-//W3C//DTD SVG 1.1//EN" "http://www.w3.org/Graphics/SVG/1.1/DTD/svg11.dtd">
<svg version="1.1" id="Layer_1" xmlns="http://www.w3.org/2000/svg" xmlns:xlink="http://www.w3.org/1999/xlink" x="0px" y="0px"
	 width="30.214px" height="30.211px" viewBox="-40.349 5.432 30.214 30.211" enable-background="new -40.349 5.432 30.214 30.211"
	 xml:space="preserve">
<path fill="#FFFFFF" d="M-25.242,5.432c-8.328,0-15.107,6.775-15.107,15.106c0,8.33,6.779,15.105,15.107,15.105
	c8.331,0,15.107-6.775,15.107-15.107C-10.134,12.207-16.911,5.432-25.242,5.432z M-24.518,28.669c0,0.598-0.489,1.086-1.087,1.086
	c-0.594,0-1.082-0.488-1.082-1.086v-0.725c0-0.594,0.488-1.08,1.082-1.08c0.598,0,1.087,0.486,1.087,1.08V28.669z M-20.2,17.284
	c-0.416,1.627-1.592,2.82-2.621,3.865c-0.832,0.83-1.606,1.629-1.606,2.279c0,0.596-0.49,1.084-1.085,1.084
	c-0.595,0-1.085-0.488-1.085-1.084c0-1.537,1.14-2.674,2.224-3.797c0.885-0.904,1.807-1.826,2.077-2.89
	c0.218-0.871,0.091-1.664-0.36-2.239c-0.541-0.707-1.519-1.07-2.837-1.07c-1.41,0-2.367,0.544-2.907,1.629
	c-0.436,0.847-0.454,1.718-0.454,1.718c0,0.594-0.488,1.047-1.082,1.047c-0.599,0-1.069-0.471-1.07-1.049
	c0-0.146,0.036-1.395,0.688-2.694c0.652-1.3,2.007-2.819,4.844-2.819c2.527,0,3.867,1.052,4.535,1.916
	C-20.075,14.286-19.804,15.784-20.2,17.284z"/>
</svg>
