<?xml version="1.0" encoding="utf-8"?>
<!-- Generator: Adobe Illustrator 16.0.0, SVG Export Plug-In . SVG Version: 6.00 Build 0)  -->
<!DOCTYPE svg PUBLIC "-//W3C//DTD SVG 1.1//EN" "http://www.w3.org/Graphics/SVG/1.1/DTD/svg11.dtd">
<svg version="1.1" id="Layer_1" xmlns="http://www.w3.org/2000/svg" xmlns:xlink="http://www.w3.org/1999/xlink" x="0px" y="0px"
	 width="30.215px" height="30.213px" viewBox="0 0 30.215 30.213" enable-background="new 0 0 30.215 30.213" xml:space="preserve">
<g>
	<g>
		<path fill="#FFFFFF" d="M14.744,21.432c-0.594,0-1.082,0.487-1.082,1.081v0.725c0,0.596,0.488,1.085,1.082,1.085
			c0.598,0,1.087-0.489,1.087-1.085v-0.725C15.831,21.919,15.342,21.432,14.744,21.432z"/>
		<path fill="#FFFFFF" d="M15.107,30.213c8.33,0,15.107-6.776,15.107-15.109C30.215,6.775,23.438,0,15.107,0
			C6.779,0,0,6.775,0,15.106C0,23.437,6.779,30.213,15.107,30.213z M15.107,2.169c7.139,0,12.939,5.798,12.939,12.938
			c0,7.136-5.801,12.938-12.939,12.938c-7.137,0-12.937-5.802-12.937-12.938C2.171,7.967,7.971,2.169,15.107,2.169z"/>
		<path fill="#FFFFFF" d="M10.411,12.395C10.429,12.395,10.429,12.395,10.411,12.395c0.594,0,1.082-0.452,1.082-1.047
			c0,0,0.018-0.871,0.454-1.717c0.54-1.085,1.497-1.629,2.907-1.629c1.319,0,2.296,0.363,2.837,1.07
			c0.451,0.576,0.578,1.369,0.361,2.24c-0.271,1.062-1.192,1.984-2.078,2.889c-1.083,1.123-2.223,2.259-2.223,3.797
			c0,0.596,0.49,1.083,1.085,1.083s1.085-0.487,1.085-1.083c0-0.651,0.775-1.449,1.606-2.279c1.03-1.046,2.205-2.24,2.621-3.866
			c0.397-1.5,0.125-2.999-0.74-4.103c-0.668-0.864-2.007-1.916-4.535-1.916c-2.837,0-4.192,1.519-4.844,2.819
			s-0.688,2.549-0.688,2.694C9.342,11.925,9.812,12.395,10.411,12.395z"/>
	</g>
</g>
<g>
</g>
<g>
</g>
<g>
</g>
<g>
</g>
<g>
</g>
<g>
</g>
</svg>
