<?xml version="1.0" encoding="utf-8"?>
<!-- Generator: Adobe Illustrator 16.0.0, SVG Export Plug-In . SVG Version: 6.00 Build 0)  -->
<!DOCTYPE svg PUBLIC "-//W3C//DTD SVG 1.1//EN" "http://www.w3.org/Graphics/SVG/1.1/DTD/svg11.dtd">
<svg version="1.1" id="Layer_1" xmlns="http://www.w3.org/2000/svg" xmlns:xlink="http://www.w3.org/1999/xlink" x="0px" y="0px"
	 width="31.986px" height="28.889px" viewBox="-41.554 -28.888 31.986 28.889"
	 enable-background="new -41.554 -28.888 31.986 28.889" xml:space="preserve">
<g>
	<g id="camera-alt_1_">
		<path fill="#FFFFFF" d="M-25.561-15.774c1.609,0,2.918,1.317,2.918,2.937c0,1.618-1.309,2.935-2.918,2.935
			s-2.918-1.316-2.918-2.935C-28.479-14.458-27.17-15.774-25.561-15.774 M-25.561-17.975c-2.826,0-5.118,2.299-5.118,5.137
			c0,2.836,2.292,5.135,5.118,5.135c2.827,0,5.118-2.299,5.118-5.135C-20.443-15.675-22.734-17.975-25.561-17.975L-25.561-17.975z"
			/>
		<path fill="#FFFFFF" d="M-21.745-26.688l2.223,2.479l0.655,0.731h0.982h5.117c0.542,0,0.999,0.462,0.999,1.01v19.258
			c0,0.547-0.457,1.01-0.999,1.01h-25.589c-0.541,0-0.998-0.463-0.998-1.01v-19.258c0-0.548,0.457-1.01,0.998-1.01h5.117h0.981
			l0.656-0.731l2.224-2.479H-21.745 M-25.561-2.613c5.718,0,10.196-4.492,10.196-10.225c0-5.734-4.479-10.226-10.196-10.226
			s-10.197,4.492-10.197,10.226C-35.758-7.105-31.279-2.613-25.561-2.613 M-20.762-28.888h-9.597l-2.88,3.21h-5.117
			c-1.758,0-3.198,1.444-3.198,3.21v19.258c0,1.766,1.44,3.21,3.198,3.21h25.589c1.759,0,3.199-1.444,3.199-3.21v-19.258
			c0-1.767-1.44-3.21-3.199-3.21h-5.117L-20.762-28.888L-20.762-28.888z M-25.561-4.814c-4.478,0-7.997-3.53-7.997-8.023
			c0-4.494,3.52-8.025,7.997-8.025s7.996,3.531,7.996,8.025C-17.565-8.345-21.083-4.814-25.561-4.814L-25.561-4.814z"/>
	</g>
</g>
</svg>
