<?xml version="1.0" encoding="utf-8"?>
<!-- Generator: Adobe Illustrator 16.0.0, SVG Export Plug-In . SVG Version: 6.00 Build 0)  -->
<!DOCTYPE svg PUBLIC "-//W3C//DTD SVG 1.1//EN" "http://www.w3.org/Graphics/SVG/1.1/DTD/svg11.dtd">
<svg version="1.1" id="Layer_1" xmlns="http://www.w3.org/2000/svg" xmlns:xlink="http://www.w3.org/1999/xlink" x="0px" y="0px"
	 width="31.985px" height="28.889px" viewBox="-39.108 5.167 31.985 28.889" enable-background="new -39.108 5.167 31.985 28.889"
	 xml:space="preserve">
<g>
	<g id="camera-alt">
		<g>
			<ellipse fill="#65DBE3" cx="-23.115" cy="21.215" rx="5.118" ry="5.136"/>
		</g>
		<g>
			<path fill="#65DBE3" d="M-27.913,5.167l-2.88,3.209h-5.117c-1.758,0-3.197,1.443-3.197,3.211v19.258
				c0,1.766,1.439,3.211,3.197,3.211h25.59c1.759,0,3.198-1.445,3.198-3.211V11.587c0-1.768-1.439-3.211-3.198-3.211h-5.117
				l-2.878-3.209H-27.913z M-23.115,29.24c-4.478,0-7.996-3.53-7.996-8.024s3.52-8.025,7.996-8.025c4.478,0,7.996,3.531,7.996,8.025
				S-18.637,29.24-23.115,29.24z"/>
		</g>
	</g>
</g>
</svg>
