<?xml version="1.0" encoding="utf-8"?>
<!-- Generator: Adobe Illustrator 16.0.0, SVG Export Plug-In . SVG Version: 6.00 Build 0)  -->
<!DOCTYPE svg PUBLIC "-//W3C//DTD SVG 1.1//EN" "http://www.w3.org/Graphics/SVG/1.1/DTD/svg11.dtd">
<svg version="1.1" id="Layer_1" xmlns="http://www.w3.org/2000/svg" xmlns:xlink="http://www.w3.org/1999/xlink" x="0px" y="0px"
	 width="29.53px" height="27.378px" viewBox="0 0 29.53 27.378" enable-background="new 0 0 29.53 27.378" xml:space="preserve">
<g>
	<g>
		<path fill="#FFFFFF" d="M27.242,2.311c-2.164-1.821-4.561-2.597-6.85-2.217c-2.955,0.485-4.686,1.911-5.623,3.063
			c-0.955-1.152-2.685-2.578-5.625-3.063C8.77,0.022,8.372,0.005,7.994,0.005c-2.633,0-5.156,1.441-7.535,4.287L0.443,4.312
			C0.263,4.437,0.135,4.62,0.062,4.832c-0.07,0.199-0.07,0.36-0.051,0.505v20.942c0,0.435,0.251,0.829,0.646,0.993
			c0.397,0.163,0.866,0.088,1.171-0.218c0.035-0.053,4.237-4.019,7.697-4.019c3.082,0,4.162,3.407,4.199,3.549
			c0,0.022,0.018,0.022,0.018,0.036c0,0.021,0.018,0.058,0.035,0.073c0.02,0.037,0.037,0.072,0.053,0.108
			c0.021,0.018,0.021,0.035,0.039,0.053c0.019,0.036,0.054,0.075,0.074,0.111c0.015,0.018,0.015,0.035,0.032,0.035
			c0.038,0.035,0.073,0.07,0.091,0.089c0.02,0.018,0.02,0.018,0.037,0.039c0.036,0.036,0.09,0.071,0.125,0.087c0,0,0.02,0,0.02,0.02
			c0.161,0.089,0.34,0.142,0.521,0.142c0.018,0,0.018,0,0.035,0l0,0c0.037,0,0.072,0,0.107,0c0.021,0,0.038,0,0.059-0.018
			c0.015,0,0.032,0,0.053-0.018c0.037-0.018,0.09-0.018,0.123-0.035c0.02,0,0.037-0.021,0.037-0.021
			c0.037-0.015,0.089-0.035,0.127-0.07c0.018,0,0.018-0.016,0.035-0.016c0.035-0.018,0.074-0.058,0.108-0.093
			c0.018-0.018,0.018-0.018,0.037-0.036c0.038-0.035,0.07-0.07,0.089-0.088c0.02-0.018,0.02-0.036,0.037-0.054
			c0.018-0.039,0.055-0.075,0.072-0.11c0.018-0.018,0.018-0.054,0.036-0.071c0.017-0.035,0.034-0.07,0.034-0.106
			c0-0.021,0.02-0.021,0.02-0.035c0.037-0.146,1.117-3.554,4.199-3.554c3.459,0,7.679,3.966,7.713,4.019
			c0.197,0.2,0.471,0.306,0.738,0.306c0.145,0,0.292-0.035,0.434-0.091c0.396-0.157,0.65-0.556,0.65-0.989V5.448
			c0.017-0.074,0.017-0.164,0.017-0.234c0-0.362-0.091-0.559-0.773-1.352C28.467,3.463,27.927,2.886,27.242,2.311z M9.525,20.872
			c-2.722,0-5.585,1.75-7.369,3.102V5.627c2.197-2.612,4.428-3.769,6.629-3.405c3.389,0.559,4.614,2.61,4.902,3.191v17.139
			C12.535,21.452,11.113,20.872,9.525,20.872z M27.385,23.956c-1.801-1.352-4.649-3.102-7.371-3.102
			c-1.586,0-2.991,0.58-4.162,1.677V5.413c0.289-0.599,1.533-2.615,4.9-3.191c0.271-0.035,0.54-0.072,0.812-0.072
			c2.847,0,5.154,2.559,5.82,3.388V23.956L27.385,23.956z"/>
	</g>
</g>
<g>
</g>
<g>
</g>
<g>
</g>
<g>
</g>
<g>
</g>
<g>
</g>
</svg>
