<?xml version="1.0" encoding="utf-8"?>
<!-- Generator: Adobe Illustrator 16.0.0, SVG Export Plug-In . SVG Version: 6.00 Build 0)  -->
<!DOCTYPE svg PUBLIC "-//W3C//DTD SVG 1.1//EN" "http://www.w3.org/Graphics/SVG/1.1/DTD/svg11.dtd">
<svg version="1.1" id="Layer_1" xmlns="http://www.w3.org/2000/svg" xmlns:xlink="http://www.w3.org/1999/xlink" x="0px" y="0px"
	 width="29.527px" height="27.377px" viewBox="-114.422 0 29.527 27.377" enable-background="new -114.422 0 29.527 27.377"
	 xml:space="preserve">
<g>
	<g>
		<path fill="#65DBE3" d="M-87.179,2.311c-2.163-1.821-4.562-2.597-6.851-2.217c-2.955,0.485-4.686,1.911-5.623,3.063
			c-0.955-1.152-2.685-2.578-5.625-3.063c-0.374-0.072-0.771-0.089-1.149-0.089c-2.634,0-5.155,1.441-7.534,4.287l-0.018,0.02
			c-0.18,0.125-0.308,0.308-0.381,0.52c-0.069,0.199-0.069,0.36-0.051,0.505v20.941c0,0.437,0.251,0.83,0.646,0.994
			c0.396,0.162,0.865,0.088,1.171-0.219c0.034-0.053,4.236-4.02,7.696-4.02c3.082,0,4.162,3.406,4.199,3.549
			c0,0.021,0.019,0.021,0.019,0.037c0,0.021,0.019,0.057,0.034,0.072c0.021,0.037,0.037,0.072,0.055,0.106
			c0.021,0.019,0.021,0.035,0.038,0.054c0.02,0.037,0.055,0.075,0.073,0.11c0.017,0.019,0.017,0.035,0.032,0.035
			c0.038,0.035,0.073,0.069,0.091,0.09c0.021,0.019,0.021,0.019,0.037,0.039c0.036,0.035,0.09,0.07,0.125,0.086
			c0,0,0.021,0,0.021,0.021c0.16,0.09,0.34,0.143,0.521,0.143c0.02,0,0.02,0,0.035,0l0,0c0.037,0,0.072,0,0.106,0
			c0.021,0,0.038,0,0.06-0.018c0.015,0,0.032,0,0.053-0.019c0.037-0.018,0.09-0.018,0.123-0.034c0.021,0,0.037-0.021,0.037-0.021
			c0.037-0.016,0.089-0.035,0.127-0.07c0.02,0,0.02-0.016,0.035-0.016c0.035-0.018,0.074-0.059,0.108-0.094
			c0.018-0.019,0.018-0.019,0.036-0.035c0.037-0.035,0.069-0.07,0.09-0.088c0.02-0.019,0.02-0.037,0.036-0.056
			c0.019-0.038,0.056-0.073,0.071-0.108c0.02-0.019,0.02-0.055,0.036-0.07c0.018-0.035,0.034-0.07,0.034-0.105
			c0-0.021,0.02-0.021,0.02-0.035c0.037-0.146,1.117-3.555,4.199-3.555c3.459,0,7.679,3.967,7.713,4.02
			c0.197,0.199,0.472,0.306,0.738,0.306c0.145,0,0.292-0.035,0.434-0.09c0.396-0.158,0.65-0.558,0.65-0.99V5.448
			c0.017-0.074,0.017-0.164,0.017-0.234c0-0.362-0.091-0.559-0.771-1.352C-85.955,3.463-86.495,2.886-87.179,2.311z"/>
	</g>
</g>
</svg>
