<?xml version="1.0" encoding="utf-8"?>
<!-- Generator: Adobe Illustrator 16.0.0, SVG Export Plug-In . SVG Version: 6.00 Build 0)  -->
<!DOCTYPE svg PUBLIC "-//W3C//DTD SVG 1.1//EN" "http://www.w3.org/Graphics/SVG/1.1/DTD/svg11.dtd">
<svg version="1.1" id="Layer_1" xmlns="http://www.w3.org/2000/svg" xmlns:xlink="http://www.w3.org/1999/xlink" x="0px" y="0px"
	 width="33.465px" height="27.38px" viewBox="-79.884 -27.379 33.465 27.38" enable-background="new -79.884 -27.379 33.465 27.38"
	 xml:space="preserve">
<g>
	<path fill="#FFFFFF" d="M-46.419-23.617v-2.456c0-0.717-0.587-1.306-1.305-1.306h-30.855c-0.718,0-1.305,0.589-1.305,1.306v2.374
		L-63.326-9.47l16.905-14.135c0-0.003,0-0.014,0-0.014L-46.419-23.617z"/>
	<path fill="#FFFFFF" d="M-46.421-23.606c0,0.148,0,3.413,0.001,3.414L-62.459-6.777c-0.261,0.197-0.586,0.305-0.891,0.305
		c-0.303,0-0.586-0.088-0.826-0.305l-15.708-13.521v19c0,0.715,0.587,1.299,1.305,1.299h30.855c0.718,0,1.305-0.584,1.305-1.299
		v-22.309L-46.421-23.606z"/>
</g>
</svg>
