<?xml version="1.0" encoding="utf-8"?>
<!-- Generator: Adobe Illustrator 16.0.0, SVG Export Plug-In . SVG Version: 6.00 Build 0)  -->
<!DOCTYPE svg PUBLIC "-//W3C//DTD SVG 1.1//EN" "http://www.w3.org/Graphics/SVG/1.1/DTD/svg11.dtd">
<svg version="1.1" id="Layer_1" xmlns="http://www.w3.org/2000/svg" xmlns:xlink="http://www.w3.org/1999/xlink" x="0px" y="0px"
	 width="33.465px" height="27.38px" viewBox="0 0 33.465 27.38" enable-background="new 0 0 33.465 27.38" xml:space="preserve">
<g>
	<g>
		<path fill="#FFFFFF" d="M33.465,1.306C33.465,0.589,32.878,0,32.16,0H1.305C0.587,0,0,0.589,0,1.306V26.08
			c0,0.716,0.587,1.3,1.305,1.3H32.16c0.718,0,1.305-0.584,1.305-1.3V1.306z M2.608,24.773V9.323L15.71,20.602
			c0.24,0.217,0.523,0.304,0.826,0.304c0.305,0,0.63-0.107,0.891-0.304L30.858,9.368v15.405H2.608z M30.858,2.61v3.368
			c-0.219,0.021-0.11,0.042-0.133,0.042L16.56,17.908L2.653,5.957C2.629,5.935,2.608,5.913,2.608,5.89V2.61H30.858z"/>
	</g>
</g>
<g>
</g>
<g>
</g>
<g>
</g>
<g>
</g>
<g>
</g>
<g>
</g>
</svg>
