<?xml version="1.0" encoding="utf-8"?>
<!-- Generator: Adobe Illustrator 16.0.0, SVG Export Plug-In . SVG Version: 6.00 Build 0)  -->
<!DOCTYPE svg PUBLIC "-//W3C//DTD SVG 1.1//EN" "http://www.w3.org/Graphics/SVG/1.1/DTD/svg11.dtd">
<svg version="1.1" id="Layer_1" xmlns="http://www.w3.org/2000/svg" xmlns:xlink="http://www.w3.org/1999/xlink" x="0px" y="0px"
	 width="38.92px" height="27.385px" viewBox="0 0 38.92 27.385" enable-background="new 0 0 38.92 27.385" xml:space="preserve">
<g>
	<g>
		<path fill="#FFFFFF" d="M34.117,14.384c0.107-1.124,0.173-2.96-0.366-4.988c-0.779-3.001-3.003-6.951-9.111-8.788
			C23.298,0.196,22.002,0,20.793,0c-6.283,0-9.522,5.423-10.668,9.115c-0.322-0.02-0.67-0.044-1.078-0.044
			c-4.619,0-7.838,2.656-8.786,7.275c-0.801,3.783,0.388,6.218,1.53,7.624c1.922,2.353,5.056,3.414,7.322,3.414h22.605
			c0.066,0,0.174,0,0.302,0l0,0c2.549,0,5.614-1.168,6.588-4.406C39.945,18.53,36.688,15.637,34.117,14.384z M36.123,22.245
			c-0.236,0.775-1.08,2.546-4.102,2.546c-0.107,0-0.15,0-0.171,0c-0.021,0-0.064,0-0.088,0H9.114c-1.6,0-3.931-0.778-5.312-2.462
			c-1.123-1.383-1.47-3.216-0.994-5.462c0.732-3.477,2.829-5.227,6.262-5.227c0.992,0,1.727,0.173,1.727,0.173
			c0.348,0.087,0.713,0.021,0.994-0.173c0.303-0.195,0.496-0.496,0.582-0.84c0.023-0.091,1.773-8.229,8.446-8.229
			c0.97,0,2.007,0.175,3.107,0.499c9.394,2.804,7.599,11.443,7.513,11.81c-0.151,0.646,0.219,1.296,0.82,1.513
			C32.477,16.478,37.314,18.269,36.123,22.245z"/>
	</g>
</g>
<g>
</g>
<g>
</g>
<g>
</g>
<g>
</g>
<g>
</g>
<g>
</g>
</svg>
