<?xml version="1.0" encoding="utf-8"?>
<!-- Generator: Adobe Illustrator 16.0.0, SVG Export Plug-In . SVG Version: 6.00 Build 0)  -->
<!DOCTYPE svg PUBLIC "-//W3C//DTD SVG 1.1//EN" "http://www.w3.org/Graphics/SVG/1.1/DTD/svg11.dtd">
<svg version="1.1" id="Layer_1" xmlns="http://www.w3.org/2000/svg" xmlns:xlink="http://www.w3.org/1999/xlink" x="0px" y="0px"
	 width="38.92px" height="27.384px" viewBox="58.388 -80.296 38.92 27.384" enable-background="new 58.388 -80.296 38.92 27.384"
	 xml:space="preserve">
<g>
	<g>
		<path fill="#65DBE3" d="M92.506-65.912c0.106-1.124,0.173-2.96-0.366-4.988c-0.779-3.001-3.002-6.951-9.111-8.788
			c-1.342-0.412-2.637-0.608-3.846-0.608c-6.283,0-9.522,5.423-10.668,9.115c-0.322-0.021-0.67-0.044-1.078-0.044
			c-4.619,0-7.838,2.656-8.787,7.276c-0.801,3.782,0.39,6.217,1.531,7.623c1.922,2.354,5.055,3.414,7.32,3.414h22.605
			c0.065,0,0.174,0,0.303,0l0,0c2.549,0,5.613-1.168,6.588-4.406C98.333-61.765,95.077-64.658,92.506-65.912z"/>
	</g>
</g>
</svg>
