<?xml version="1.0" encoding="utf-8"?>
<!-- Generator: Adobe Illustrator 16.0.0, SVG Export Plug-In . SVG Version: 6.00 Build 0)  -->
<!DOCTYPE svg PUBLIC "-//W3C//DTD SVG 1.1//EN" "http://www.w3.org/Graphics/SVG/1.1/DTD/svg11.dtd">
<svg version="1.1" id="Layer_1" xmlns="http://www.w3.org/2000/svg" xmlns:xlink="http://www.w3.org/1999/xlink" x="0px" y="0px"
	 width="22.709px" height="31.943px" viewBox="0 0 22.709 31.943" enable-background="new 0 0 22.709 31.943" xml:space="preserve">
<g>
	<g>
		<path fill="#FFFFFF" d="M11.354,7.57c-2.774,0-5.024,2.249-5.024,5.021c0,2.774,2.25,5.021,5.024,5.021
			c2.771,0,5.021-2.246,5.021-5.021C16.375,9.819,14.126,7.57,11.354,7.57z M11.354,15.366c-1.521,0-2.774-1.236-2.774-2.774
			c0-1.536,1.236-2.772,2.774-2.772c1.535,0,2.771,1.236,2.771,2.772C14.126,14.13,12.871,15.366,11.354,15.366z"/>
		<path fill="#FFFFFF" d="M19.689,3.749C18.174,2.045,15.42,0,11.016,0C3.783,0,0,5.883,0,11.693C0,19.3,10.4,31.044,10.849,31.552
			c0.206,0.243,0.506,0.392,0.823,0.392h0.018c0.318,0,0.6-0.148,0.825-0.374c0.113-0.109,2.567-2.771,5.06-6.5
			c3.41-5.095,5.135-9.612,5.135-13.396C22.709,8.786,21.601,5.9,19.689,3.749z M11.707,29.059
			c-2.432-2.924-9.439-11.785-9.439-17.385c0-4.534,2.754-9.424,8.768-9.424c6.129,0,9.426,4.852,9.426,9.424
			C20.461,18.269,14.033,26.343,11.707,29.059z"/>
	</g>
</g>
<g>
</g>
<g>
</g>
<g>
</g>
<g>
</g>
<g>
</g>
<g>
</g>
</svg>
