<?xml version="1.0" encoding="utf-8"?>
<!-- Generator: Adobe Illustrator 16.0.0, SVG Export Plug-In . SVG Version: 6.00 Build 0)  -->
<!DOCTYPE svg PUBLIC "-//W3C//DTD SVG 1.1//EN" "http://www.w3.org/Graphics/SVG/1.1/DTD/svg11.dtd">
<svg version="1.1" id="Layer_1" xmlns="http://www.w3.org/2000/svg" xmlns:xlink="http://www.w3.org/1999/xlink" x="0px" y="0px"
	 width="100.092px" height="100.092px" viewBox="0 0 100.092 100.092" enable-background="new 0 0 100.092 100.092"
	 xml:space="preserve">
<g>
	<path fill="#65DBE3" d="M54.752,78.532c-0.485,0.209-0.844,0.484-1.069,0.83c-0.229,0.35-0.343,0.803-0.343,1.365
		c0,0.683,0.188,1.217,0.562,1.6c0.373,0.381,0.873,0.572,1.502,0.572c0.654,0,1.183-0.181,1.584-0.543
		c0.402-0.362,0.604-0.826,0.604-1.393c0-0.548-0.196-0.982-0.592-1.307S55.854,78.96,54.752,78.532z"/>
	<path fill="#65DBE3" d="M56.037,76.89c0.409-0.309,0.687-0.597,0.829-0.869c0.146-0.271,0.218-0.603,0.218-0.996
		c0-0.541-0.165-0.979-0.493-1.311c-0.328-0.331-0.766-0.495-1.307-0.495c-0.508,0-0.914,0.147-1.229,0.443
		c-0.309,0.295-0.466,0.668-0.466,1.118c0,0.425,0.147,0.785,0.445,1.087C54.333,76.168,54.998,76.508,56.037,76.89z"/>
	<path fill="#65DBE3" d="M50.709,0.948c-27.64,0-50.046,22.407-50.046,50.046c0,27.64,22.407,50.046,50.046,50.046
		c27.64,0,50.046-22.406,50.046-50.046C100.755,23.355,78.349,0.948,50.709,0.948z M42.909,24.351l0.032-0.355l0.396-0.074
		c0.105,0,0.188,0.038,0.241,0.065c0.435,0.237,0.822,0.453,1.195,0.738c0.095,0.077,0.191,0.155,0.284,0.234l0.184,0.153
		c0.095,0.078,0.176,0.168,0.262,0.267l0.64,0.708l-0.947,0.043c0.033,0.035,0.065,0.07,0.097,0.105
		c0.258,0.285,0.496,0.542,0.75,0.779c0.536,0.489,1.034,0.763,1.572,0.854c0.61,0.104,1.192,0.042,1.675-0.231
		c0.161-0.091,0.307-0.224,0.446-0.406c0.21-0.273,0.309-0.608,0.319-1.084c0.02-0.928,0.044-1.854,0.068-2.781l0.04-1.377
		c0.032-1.145,0.063-2.289,0.07-3.428l-1.958,0.003c-0.163,0.264-0.443,0.346-0.546,0.376c-0.378,0.106-0.757,0-1.015-0.284
		c-0.287-0.319-0.354-0.707-0.184-1.066c0.17-0.357,0.465-0.573,0.828-0.61l0.105-0.005c0.327,0,0.612,0.155,0.807,0.44l1.212-0.004
		l0.779,0.001c0.012-0.5,0.027-1.005,0.042-1.509c-0.518-0.194-0.913-0.541-1.15-1.004c-0.286-0.553-0.324-1.148-0.112-1.721
		c0.147-0.402,0.393-0.729,0.732-0.975c0.232-0.167,0.595-0.389,1.053-0.397l0.233-0.005c0.192,0,0.444,0.014,0.705,0.118
		c0.533,0.214,0.922,0.559,1.15,1.025c0.273,0.556,0.305,1.127,0.095,1.696c-0.22,0.591-0.643,1.013-1.26,1.259
		c0.015,0.503,0.03,1.008,0.046,1.512h0.924l1.063,0.003c0.307-0.425,0.838-0.556,1.247-0.337c0.52,0.275,0.722,0.81,0.492,1.301
		c-0.248,0.531-0.854,0.745-1.377,0.488c-0.065-0.032-0.244-0.118-0.364-0.31h-1.964c0.011,0.346,0.015,0.699,0.019,1.049
		c0.006,0.45,0.011,0.899,0.029,1.349c0.013,0.29,0.017,0.581,0.021,0.871l0.086,3.484c0.008,0.334,0.014,0.668,0.031,1.002
		c0.021,0.365,0.116,0.65,0.301,0.899c0.315,0.428,0.76,0.647,1.399,0.688c0.269,0.02,0.54,0.02,0.735-0.025
		c0.354-0.088,0.664-0.213,0.942-0.386c0.511-0.319,0.927-0.759,1.31-1.181c0.052-0.059,0.104-0.115,0.158-0.173l-0.229-0.006
		l-0.178-0.167l-0.194-0.263l0.226-0.239c0.291-0.304,0.529-0.526,0.78-0.715c0.179-0.135,0.365-0.258,0.556-0.38l0.152-0.102
		c0.127-0.083,0.264-0.149,0.396-0.216l0.232-0.118l0.299-0.015l0.244,0.239l0.01,0.392c0.002,0.193,0.006,0.386-0.006,0.579
		c-0.023,0.422-0.05,0.907-0.195,1.388l-0.356,1.092l-0.435-0.713c-0.139,0.277-0.315,0.518-0.471,0.732
		c-0.086,0.115-0.179,0.219-0.271,0.325c-0.059,0.063-0.116,0.127-0.172,0.197c-0.108,0.135-0.235,0.255-0.364,0.374
		c-0.199,0.185-0.362,0.333-0.532,0.478c-0.146,0.124-0.299,0.246-0.459,0.361c-0.279,0.201-0.562,0.403-0.861,0.575
		c-0.467,0.269-0.979,0.548-1.545,0.758c-0.343,0.125-0.617,0.224-0.869,0.362c-0.435,0.232-0.795,0.498-1.104,0.814
		c-0.047,0.047-0.092,0.091-0.132,0.14l-0.116,0.134l-0.229,0.033h-0.17l-0.168-0.158c-0.119-0.131-0.233-0.255-0.363-0.363
		c-0.224-0.184-0.456-0.348-0.712-0.502c-0.277-0.167-0.581-0.281-0.903-0.401l-0.311-0.122c-0.085-0.033-0.167-0.072-0.248-0.111
		l-0.163-0.074c-0.311-0.139-0.63-0.307-0.948-0.501c-0.434-0.268-0.777-0.504-1.08-0.744c-0.156-0.128-0.311-0.255-0.461-0.383
		c-0.149-0.126-0.299-0.258-0.435-0.406l-0.389-0.417c-0.208-0.232-0.406-0.497-0.624-0.832c-0.058-0.087-0.106-0.18-0.15-0.272
		l-0.363,0.584l-0.31-0.627c-0.078-0.157-0.115-0.305-0.148-0.439l-0.026-0.101c-0.092-0.343-0.111-0.682-0.13-1.008l-0.006-0.122
		C42.9,24.864,42.886,24.607,42.909,24.351z M23.354,47.351l-4.511,9.902l-4.383-9.911l-1.64,9.21h-2.378l3.208-16.388l5.232,11.846
		l5.42-11.846l2.883,16.388h-2.36L23.354,47.351z M49.771,83.37H43.87v-0.705h1.109c0.284,0,0.484-0.062,0.603-0.188
		c0.12-0.123,0.18-0.328,0.18-0.611v-6.895c0-0.162-0.049-0.287-0.149-0.371c-0.099-0.088-0.247-0.132-0.446-0.132H43.56v-0.684
		c0.799-0.05,1.47-0.151,2.014-0.304c0.543-0.151,1.096-0.379,1.661-0.685h0.554v9.295c0,0.183,0.05,0.323,0.152,0.423
		c0.101,0.1,0.242,0.148,0.418,0.148h1.413L49.771,83.37L49.771,83.37z M57.987,82.635c-0.674,0.644-1.588,0.964-2.741,0.964
		c-1.119,0-1.994-0.259-2.623-0.774c-0.631-0.517-0.944-1.179-0.944-1.982c0-0.597,0.176-1.101,0.526-1.511s0.983-0.771,1.896-1.087
		c-0.767-0.368-1.291-0.763-1.58-1.183c-0.287-0.42-0.434-0.925-0.434-1.514c0-0.824,0.311-1.529,0.932-2.121
		c0.619-0.591,1.399-0.885,2.342-0.885c0.933,0,1.685,0.227,2.257,0.675c0.571,0.451,0.856,0.974,0.856,1.572
		c0,0.44-0.134,0.845-0.402,1.214c-0.268,0.369-0.752,0.736-1.449,1.1c0.9,0.388,1.521,0.812,1.865,1.275
		c0.341,0.463,0.512,1.046,0.512,1.751C58.998,81.155,58.662,81.991,57.987,82.635z M74.782,73.966l-1.1,1.1L50.978,52.36
		L28.272,75.065l-1.099-1.101L49.877,51.26l-23.24-23.24l1.1-1.1l23.239,23.238L74.218,26.92l1.1,1.1L52.075,51.26L74.782,73.966z
		 M87.06,56.968c-0.692,0.191-1.559,0.287-2.598,0.287h-3.484V42.012h2.291c1.02,0,1.832,0.079,2.438,0.237
		c0.61,0.159,1.128,0.424,1.551,0.801c0.427,0.388,0.765,0.872,1.017,1.451c0.256,0.584,0.384,1.176,0.384,1.776
		c0,1.092-0.416,2.017-1.253,2.775c0.81,0.277,1.447,0.759,1.916,1.451c0.474,0.686,0.711,1.48,0.711,2.389
		c0,1.19-0.424,2.199-1.264,3.021C88.259,56.418,87.692,56.771,87.06,56.968z"/>
	<path fill="#65DBE3" d="M51.032,12.62l-0.01,0.389c-0.493,0.004-0.906,0.419-0.905,0.908c0.003,0.483,0.414,0.893,0.899,0.893
		c0.262,0,0.484-0.093,0.653-0.264c0.173-0.17,0.269-0.404,0.269-0.637c0-0.497-0.408-0.9-0.906-0.9V12.62z"/>
	<path fill="#65DBE3" d="M85.88,47.99c0.396-0.378,0.596-0.938,0.596-1.673c0-0.719-0.205-1.262-0.61-1.635
		c-0.408-0.372-1.001-0.558-1.777-0.558h-0.81v4.433h0.72C84.854,48.557,85.479,48.369,85.88,47.99z"/>
	<path fill="#65DBE3" d="M84.442,50.483h-1.164v4.611H84.7c1.037,0,1.804-0.204,2.29-0.612c0.513-0.44,0.77-1,0.77-1.678
		c0-0.66-0.247-1.212-0.739-1.658C86.539,50.703,85.681,50.483,84.442,50.483z"/>
</g>
</svg>
