<?xml version="1.0" encoding="utf-8"?>
<!-- Generator: Adobe Illustrator 16.0.0, SVG Export Plug-In . SVG Version: 6.00 Build 0)  -->
<!DOCTYPE svg PUBLIC "-//W3C//DTD SVG 1.1//EN" "http://www.w3.org/Graphics/SVG/1.1/DTD/svg11.dtd">
<svg version="1.1" id="Layer_1" xmlns="http://www.w3.org/2000/svg" xmlns:xlink="http://www.w3.org/1999/xlink" x="0px" y="0px"
	 width="36.938px" height="30.21px" viewBox="0 0 36.938 30.21" enable-background="new 0 0 36.938 30.21" xml:space="preserve">
<g>
	<g>
		<g>
			<path fill="#FFFFFF" d="M7.01,22.959c0.543,0,1.116-0.112,1.654-0.325c0.782-0.306,1.454-0.796,1.896-1.387
				c0.371-0.499,0.566-1.606,0.566-1.622c0-2.204,0-8.821,0-8.821l8.487-3.5v5.596c-0.093-0.006-0.183-0.016-0.276-0.016
				c-0.541,0-1.113,0.113-1.654,0.324c-0.781,0.306-1.454,0.796-1.895,1.387c-0.559,0.753-0.707,1.614-0.416,2.368
				c0.366,0.937,1.358,1.521,2.586,1.521c0.543,0,1.115-0.113,1.655-0.323c1.056-0.414,1.873-1.137,2.247-1.988
				c0.139-0.324,0.212-1.033,0.212-1.06V5.48c0-0.003,0-0.007,0-0.009v-4.24c0-0.409-0.206-0.796-0.546-1.024
				c-0.342-0.226-0.773-0.271-1.15-0.116L9.423,4.604c-0.457,0.189-0.76,0.642-0.76,1.138v4.221c0,0.004,0,0.007,0,0.011v7.398
				c-0.093-0.004-0.182-0.013-0.276-0.013c-0.54,0-1.113,0.111-1.654,0.323c-0.78,0.306-1.454,0.799-1.894,1.387
				c-0.559,0.752-0.711,1.612-0.418,2.366C4.788,22.372,5.78,22.959,7.01,22.959z M19.613,3.068v1.575l-8.487,3.499V6.568
				L19.613,3.068z"/>
			<path fill="#FFFFFF" d="M36.552,16.939c-0.941-2.626-3.447-4.396-6.238-4.396c-0.759,0-1.508,0.131-2.227,0.388
				c-1.667,0.596-3,1.801-3.759,3.4c-0.138,0.297-0.249,0.596-0.342,0.906L9.81,23.726c-0.499,0.227-0.773,0.751-0.705,1.273
				c-1.426,0.089-2.463,0.915-3.475,1.724l-0.244,0.199c-1.528,1.215-2.293,0.986-3.339,0.054c-0.508-0.452-1.284-0.407-1.735,0.1
				c-0.453,0.51-0.406,1.287,0.102,1.739c1.045,0.933,2.104,1.396,3.189,1.396c1.074,0,2.173-0.454,3.312-1.36l0.258-0.204
				c1.275-1.025,1.795-1.375,2.809-1.092l0.104,0.295c0.18,0.498,0.653,0.819,1.161,0.819c0.104,0,0.207-0.015,0.312-0.04
				l15.082-3.961c1.064,0.714,2.336,1.123,3.676,1.123c0.758,0,1.505-0.128,2.228-0.387C35.98,24.177,37.777,20.38,36.552,16.939z
				 M11.86,25.493l11.892-5.442c0.062,0.45,0.169,0.901,0.327,1.345c0.154,0.44,0.359,0.855,0.604,1.242l-12.655,3.321L11.86,25.493
				z M31.713,23.086c-0.451,0.164-0.922,0.243-1.397,0.243c-1.756,0-3.33-1.107-3.92-2.763c-0.375-1.048-0.316-2.178,0.158-3.181
				c0.476-1.006,1.314-1.764,2.361-2.137c0.451-0.163,0.924-0.244,1.398-0.244c1.754,0,3.33,1.111,3.918,2.764
				C35.006,19.929,33.874,22.317,31.713,23.086z"/>
		</g>
	</g>
</g>
<g>
</g>
<g>
</g>
<g>
</g>
<g>
</g>
<g>
</g>
<g>
</g>
</svg>
