<?xml version="1.0" encoding="utf-8"?>
<!-- Generator: Adobe Illustrator 16.0.0, SVG Export Plug-In . SVG Version: 6.00 Build 0)  -->
<!DOCTYPE svg PUBLIC "-//W3C//DTD SVG 1.1//EN" "http://www.w3.org/Graphics/SVG/1.1/DTD/svg11.dtd">
<svg version="1.1" id="Layer_1" xmlns="http://www.w3.org/2000/svg" xmlns:xlink="http://www.w3.org/1999/xlink" x="0px" y="0px"
	 width="36.937px" height="30.211px" viewBox="80.843 0 36.937 30.211" enable-background="new 80.843 0 36.937 30.211"
	 xml:space="preserve">
<g>
	<g>
		<g>
			<path fill="#FFFFFF" d="M87.853,22.958c0.543,0,1.116-0.111,1.654-0.324c0.781-0.307,1.454-0.797,1.896-1.387
				c0.371-0.5,0.566-1.606,0.566-1.623c0-2.203,0-8.82,0-8.82l8.486-3.5V12.9c-0.093-0.006-0.183-0.016-0.275-0.016
				c-0.541,0-1.113,0.113-1.654,0.324c-0.781,0.306-1.454,0.796-1.895,1.387c-0.56,0.753-0.707,1.614-0.416,2.368
				c0.365,0.938,1.357,1.521,2.586,1.521c0.543,0,1.115-0.113,1.654-0.322c1.057-0.414,1.873-1.138,2.247-1.988
				c0.14-0.324,0.212-1.033,0.212-1.061V5.48c0-0.003,0-0.007,0-0.009v-4.24c0-0.409-0.205-0.796-0.546-1.024
				c-0.342-0.226-0.772-0.271-1.149-0.116L90.266,4.604c-0.457,0.189-0.76,0.642-0.76,1.138v4.221c0,0.004,0,0.007,0,0.011v7.398
				c-0.094-0.004-0.183-0.014-0.276-0.014c-0.54,0-1.113,0.111-1.654,0.323c-0.779,0.306-1.454,0.799-1.894,1.387
				c-0.56,0.752-0.711,1.612-0.418,2.366C85.631,22.373,86.622,22.958,87.853,22.958z"/>
			<path fill="#FFFFFF" d="M117.395,16.939c-0.941-2.626-3.447-4.396-6.238-4.396c-0.759,0-1.508,0.131-2.227,0.388
				c-1.667,0.596-3,1.801-3.759,3.4c-0.139,0.297-0.249,0.596-0.343,0.905l-14.176,6.489c-0.499,0.227-0.772,0.751-0.705,1.273
				c-1.426,0.088-2.463,0.914-3.475,1.724l-0.244,0.198c-1.528,1.216-2.293,0.986-3.339,0.055c-0.508-0.452-1.284-0.407-1.735,0.1
				c-0.453,0.51-0.406,1.287,0.103,1.739c1.045,0.933,2.104,1.396,3.188,1.396c1.074,0,2.173-0.453,3.312-1.359l0.258-0.204
				c1.275-1.024,1.795-1.375,2.809-1.092l0.104,0.295c0.18,0.498,0.652,0.819,1.161,0.819c0.104,0,0.207-0.016,0.312-0.041
				l15.082-3.961c1.064,0.715,2.336,1.123,3.676,1.123c0.759,0,1.505-0.127,2.229-0.387
				C116.823,24.177,118.619,20.38,117.395,16.939z"/>
		</g>
	</g>
</g>
</svg>
