<?xml version="1.0" encoding="utf-8"?>
<!-- Generator: Adobe Illustrator 16.0.0, SVG Export Plug-In . SVG Version: 6.00 Build 0)  -->
<!DOCTYPE svg PUBLIC "-//W3C//DTD SVG 1.1//EN" "http://www.w3.org/Graphics/SVG/1.1/DTD/svg11.dtd">
<svg version="1.1" id="Layer_1" xmlns="http://www.w3.org/2000/svg" xmlns:xlink="http://www.w3.org/1999/xlink" x="0px" y="0px"
	 width="29.645px" height="27.379px" viewBox="-86.984 0 29.645 27.379" enable-background="new -86.984 0 29.645 27.379"
	 xml:space="preserve">
<g>
	<path fill="#65DBE3" d="M-72.706,27.19c0.188,0.107,0.397,0.189,0.625,0.189c0.21,0,0.437-0.062,0.627-0.189
		c0.515-0.348,12.55-8.281,13.916-16.35c0.704-4.179-0.588-6.76-1.779-8.186C-60.726,0.985-62.816,0-64.883,0
		c-0.685,0-1.352,0.113-1.938,0.341c-2.889,1.082-4.843,2.999-5.906,4.31c-1.043-1.29-2.83-3.152-4.991-3.893
		c-0.664-0.226-1.389-0.342-2.147-0.342c-1.936,0-3.776,0.796-5.051,2.205c-1.119,1.233-2.393,3.589-1.992,7.689
		C-86.113,18.377-73.258,26.827-72.706,27.19z"/>
</g>
</svg>
