<?xml version="1.0" encoding="utf-8"?>
<!-- Generator: Adobe Illustrator 16.0.0, SVG Export Plug-In . SVG Version: 6.00 Build 0)  -->
<!DOCTYPE svg PUBLIC "-//W3C//DTD SVG 1.1//EN" "http://www.w3.org/Graphics/SVG/1.1/DTD/svg11.dtd">
<svg version="1.1" id="Layer_1" xmlns="http://www.w3.org/2000/svg" xmlns:xlink="http://www.w3.org/1999/xlink" x="0px" y="0px"
	 width="29.646px" height="27.381px" viewBox="0 0 29.646 27.381" enable-background="new 0 0 29.646 27.381" xml:space="preserve">
<g>
	<g>
		<path fill="#FFFFFF" d="M14.278,27.19c0.189,0.108,0.398,0.19,0.625,0.19c0.21,0,0.436-0.06,0.627-0.19
			c0.514-0.346,12.549-8.281,13.916-16.349c0.704-4.179-0.588-6.76-1.78-8.186C26.259,0.985,24.169,0,22.101,0
			c-0.684,0-1.351,0.113-1.938,0.341c-2.888,1.082-4.842,2.999-5.906,4.31c-1.043-1.29-2.83-3.152-4.992-3.893
			C8.601,0.532,7.877,0.416,7.118,0.416c-1.936,0-3.777,0.796-5.051,2.205C0.948,3.854-0.325,6.21,0.075,10.31
			C0.872,18.378,13.726,26.827,14.278,27.19z M3.758,4.138c1.157-1.273,2.602-1.461,3.36-1.461c0.495,0,0.971,0.074,1.408,0.227
			c2.637,0.894,4.744,4.254,4.781,4.272c0.209,0.341,0.59,0.549,0.988,0.531c0.398,0,0.759-0.226,0.967-0.567
			c0.021-0.04,1.922-3.269,5.719-4.691c0.322-0.115,0.721-0.189,1.119-0.189c1.404,0,2.828,0.701,3.816,1.859
			c1.291,1.521,1.727,3.722,1.271,6.343c-0.494,2.889-2.85,6.342-6.818,10.006c-2.238,2.067-4.441,3.663-5.467,4.384
			c-1.08-0.739-3.42-2.447-5.793-4.612c-4.137-3.797-6.475-7.309-6.757-10.159C2.104,7.481,2.582,5.429,3.758,4.138z"/>
	</g>
</g>
<g>
</g>
<g>
</g>
<g>
</g>
<g>
</g>
<g>
</g>
<g>
</g>
</svg>
