<?xml version="1.0" encoding="utf-8"?>
<!-- Generator: Adobe Illustrator 16.0.0, SVG Export Plug-In . SVG Version: 6.00 Build 0)  -->
<!DOCTYPE svg PUBLIC "-//W3C//DTD SVG 1.1//EN" "http://www.w3.org/Graphics/SVG/1.1/DTD/svg11.dtd">
<svg version="1.1" id="Layer_1" xmlns="http://www.w3.org/2000/svg" xmlns:xlink="http://www.w3.org/1999/xlink" x="0px" y="0px"
	 width="28.548px" height="30.213px" viewBox="0 0 28.548 30.213" enable-background="new 0 0 28.548 30.213" xml:space="preserve">
<g>
	<g>
		<path fill="#FFFFFF" d="M20.803,0.334L9.172,11.964c-0.213,0.217-0.327,0.505-0.348,0.816l-0.078,5.938
			c0,0.309,0.117,0.639,0.348,0.85c0.214,0.215,0.523,0.39,0.813,0.39h0.02l5.748-0.116c0.31,0,0.599-0.176,0.813-0.389
			L28.215,7.727c0.443-0.443,0.443-1.18,0-1.643l-5.75-5.75C21.984-0.111,21.248-0.111,20.803,0.334z M15.151,17.479l-4.063,0.06
			l0.058-4.26l5.922-5.918l4.083,4.138L15.151,17.479z M22.795,9.836l-4.082-4.139l2.903-2.905l4.103,4.103L22.795,9.836z"/>
		<path fill="#FFFFFF" d="M12.771,3.701c0.639,0,1.161-0.521,1.161-1.161c0-0.636-0.522-1.159-1.161-1.159H1.162
			C0.521,1.381,0,1.904,0,2.54v26.512c0,0.639,0.521,1.161,1.162,1.161h21.67c0.641,0,1.164-0.522,1.164-1.161V18.217
			c0-0.642-0.523-1.162-1.164-1.162c-0.637,0-1.158,0.521-1.158,1.162v9.674H2.322V3.701H12.771z"/>
	</g>
</g>
<g>
</g>
<g>
</g>
<g>
</g>
<g>
</g>
<g>
</g>
<g>
</g>
</svg>
