<?xml version="1.0" encoding="utf-8"?>
<!-- Generator: Adobe Illustrator 16.0.0, SVG Export Plug-In . SVG Version: 6.00 Build 0)  -->
<!DOCTYPE svg PUBLIC "-//W3C//DTD SVG 1.1//EN" "http://www.w3.org/Graphics/SVG/1.1/DTD/svg11.dtd">
<svg version="1.1" id="Layer_1" xmlns="http://www.w3.org/2000/svg" xmlns:xlink="http://www.w3.org/1999/xlink" x="0px" y="0px"
	 width="28.547px" height="30.213px" viewBox="0 0 28.547 30.213" enable-background="new 0 0 28.547 30.213" xml:space="preserve">
<g>
	<g>
		<path fill="#FFFFFF" d="M15.151,17.479l-4.063,0.059l0.059-4.26l5.922-5.918l4.082,4.138L15.151,17.479z M22.795,9.835
			l-4.082-4.139l2.902-2.905l4.104,4.103L22.795,9.835z"/>
		<path fill="#FFFFFF" d="M16.489,19.452c-0.215,0.213-0.504,0.389-0.814,0.389l-5.747,0.117h-0.02c-0.291,0-0.6-0.176-0.813-0.391
			c-0.231-0.211-0.349-0.541-0.349-0.85l0.078-5.938c0.021-0.312,0.135-0.599,0.348-0.816L19.756,1.38H1.162
			C0.521,1.38,0,1.903,0,2.54v26.512c0,0.639,0.521,1.16,1.162,1.16h21.67c0.641,0,1.164-0.521,1.164-1.16V11.945L16.489,19.452z"/>
	</g>
</g>
</svg>
