<?xml version="1.0" encoding="utf-8"?>
<!-- Generator: Adobe Illustrator 16.0.0, SVG Export Plug-In . SVG Version: 6.00 Build 0)  -->
<!DOCTYPE svg PUBLIC "-//W3C//DTD SVG 1.1//EN" "http://www.w3.org/Graphics/SVG/1.1/DTD/svg11.dtd">
<svg version="1.1" id="Layer_1" xmlns="http://www.w3.org/2000/svg" xmlns:xlink="http://www.w3.org/1999/xlink" x="0px" y="0px"
	 width="899px" height="85.625px" viewBox="-80.144 0 899 85.625" enable-background="new -80.144 0 899 85.625"
	 xml:space="preserve">
<g>
	<path fill="#FFFFFF" d="M6.19,81.953l12.695-64.844l20.703,46.875l21.444-46.875L72.44,81.953h-9.336l-5.819-36.406l-17.853,39.18
		L22.088,45.508l-6.484,36.445H6.19z"/>
	<path fill="#FFFFFF" d="M83.646,51.523c0-8.489,3.111-15.781,9.336-21.875c6.197-6.094,13.646-9.141,22.345-9.141
		c8.594,0,15.963,3.073,22.108,9.219c6.172,6.146,9.258,13.529,9.258,22.148c0,8.672-3.1,16.028-9.297,22.069
		c-6.225,6.068-13.736,9.103-22.539,9.103c-7.787,0-14.778-2.694-20.977-8.086C87.057,68.998,83.646,61.186,83.646,51.523z
		 M92.826,51.621c0,6.661,2.238,12.139,6.719,16.432c4.453,4.293,9.596,6.439,15.43,6.439c6.328,0,11.666-2.186,16.016-6.557
		c4.35-4.424,6.523-9.811,6.523-16.158c0-6.426-2.148-11.812-6.445-16.158c-4.271-4.372-9.558-6.557-15.858-6.557
		c-6.276,0-11.576,2.186-15.898,6.557C94.987,39.939,92.826,45.273,92.826,51.621z M129.037,5.43l-15.938,10.781l-4.336-3.633
		L121.302,0L129.037,5.43z"/>
	<path fill="#FFFFFF" d="M159.578,81.953V17.539l43.983,46.016V21.641h9.103v63.984L168.68,39.727v42.227L159.578,81.953
		L159.578,81.953z"/>
	<path fill="#FFFFFF" d="M237.659,21.641v60.312h-9.103V21.641H237.659z"/>
	<path fill="#FFFFFF" d="M298.161,24.863v10.762c-5.262-4.4-10.703-6.602-16.328-6.602c-6.198,0-11.42,2.227-15.664,6.68
		c-4.271,4.428-6.406,9.844-6.406,16.25c0,6.328,2.135,11.667,6.406,16.016c4.271,4.35,9.505,6.523,15.703,6.523
		c3.203,0,5.924-0.521,8.164-1.562c1.25-0.521,2.545-1.224,3.887-2.109c1.341-0.885,2.754-1.952,4.238-3.202v10.996
		c-5.209,2.956-10.679,4.434-16.406,4.434c-8.62,0-15.978-3.008-22.07-9.022c-6.067-6.067-9.102-13.385-9.102-21.953
		c0-7.682,2.539-14.531,7.616-20.547c6.251-7.369,14.337-11.055,24.259-11.055C287.874,20.469,293.108,21.934,298.161,24.863z"/>
	<path fill="#FFFFFF" d="M347.961,67.305h-25.82l-6.719,14.648h-9.805l29.844-64.102l28.787,64.102h-9.958L347.961,67.305z
		 M344.25,58.75l-8.945-20.508L325.93,58.75H344.25z"/>
	<path fill="#FFFFFF" d="M423.064,48.398l10.858,13.125l0.353-0.392c1.172-1.274,2.277-2.524,3.319-3.75
		c1.041-1.224,2.044-2.461,3.009-3.711l5.938,6.095c-0.729,1.041-1.688,2.252-2.871,3.633c-1.186,1.381-2.598,2.969-4.238,4.766
		l11.172,13.789h-11.327l-6.017-7.383c-5.521,5.703-11.264,8.555-17.227,8.555c-5.339,0-9.87-1.705-13.594-5.117
		c-3.646-3.438-5.47-7.682-5.47-12.734c0-6.016,2.892-11.016,8.672-15l3.945-2.694c0.052-0.024,0.144-0.091,0.273-0.195
		c0.13-0.104,0.312-0.247,0.547-0.43c-3.984-4.244-5.978-8.424-5.978-12.539c0-4.062,1.328-7.369,3.984-9.922
		c2.708-2.552,6.197-3.828,10.469-3.828c4.142,0,7.564,1.237,10.273,3.711c2.708,2.475,4.062,5.6,4.062,9.375
		c0,2.604-0.741,4.961-2.227,7.07C429.535,42.93,426.891,45.456,423.064,48.398z M415.837,53.516l-0.508,0.353
		c-3.726,2.577-6.264,4.647-7.617,6.211c-1.328,1.562-1.992,3.217-1.992,4.961c0,2.5,1.002,4.792,3.008,6.875
		c2.083,2.006,4.375,3.008,6.875,3.008c3.517,0,7.564-2.305,12.148-6.914L415.837,53.516z M417.791,41.992l0.742-0.547
		c1.274-0.963,2.33-1.803,3.164-2.52c0.833-0.716,1.432-1.321,1.797-1.816c0.781-0.963,1.172-2.148,1.172-3.555
		c0-1.588-0.534-2.877-1.602-3.867c-1.068-0.989-2.5-1.484-4.298-1.484c-1.641,0-3.021,0.508-4.141,1.523
		c-1.12,0.964-1.68,2.201-1.68,3.711c0,1.771,0.703,3.516,2.108,5.234l2.267,2.734C417.4,41.537,417.555,41.732,417.791,41.992z"/>
	<path fill="#FFFFFF" d="M485.397,81.953V21.641h9.062c4.036,0,7.252,0.312,9.648,0.938c2.422,0.625,4.466,1.68,6.133,3.164
		c1.691,1.537,3.033,3.451,4.022,5.742c1.017,2.318,1.523,4.662,1.523,7.031c0,4.323-1.654,7.982-4.961,10.977
		c3.203,1.094,5.729,3.008,7.578,5.741c1.875,2.709,2.812,5.859,2.812,9.453c0,4.715-1.667,8.698-5,11.953
		c-2.006,2.006-4.258,3.398-6.758,4.18c-2.734,0.757-6.159,1.134-10.273,1.134L485.397,81.953L485.397,81.953z M494.499,47.539
		h2.852c3.386,0,5.865-0.748,7.441-2.246c1.575-1.497,2.363-3.704,2.363-6.621c0-2.838-0.809-4.993-2.422-6.465
		c-1.615-1.471-3.959-2.207-7.031-2.207h-3.203V47.539z M494.499,73.398h5.625c4.114,0,7.135-0.808,9.062-2.422
		c2.031-1.744,3.048-3.959,3.048-6.642c0-2.604-0.978-4.791-2.931-6.562c-1.9-1.744-5.3-2.617-10.194-2.617h-4.609V73.398z"/>
	<path fill="#FFFFFF" d="M530.666,51.523c0-8.489,3.111-15.781,9.336-21.875c6.197-6.094,13.646-9.141,22.344-9.141
		c8.595,0,15.963,3.073,22.109,9.219c6.172,6.146,9.258,13.529,9.258,22.148c0,8.672-3.1,16.028-9.297,22.069
		c-6.225,6.068-13.737,9.103-22.539,9.103c-7.787,0-14.779-2.694-20.977-8.086C534.077,68.998,530.666,61.186,530.666,51.523z
		 M539.844,51.621c0,6.661,2.239,12.139,6.72,16.432c4.452,4.293,9.596,6.439,15.43,6.439c6.328,0,11.666-2.186,16.016-6.557
		c4.35-4.424,6.523-9.811,6.523-16.158c0-6.426-2.148-11.812-6.445-16.158c-4.271-4.372-9.558-6.557-15.859-6.557
		c-6.275,0-11.575,2.186-15.897,6.557C542.006,39.939,539.844,45.273,539.844,51.621z"/>
	<path fill="#FFFFFF" d="M627.027,56.25l18.672,25.703h-11.133l-17.228-24.688h-1.641v24.688h-9.103V21.641h10.664
		c7.97,0,13.725,1.498,17.267,4.492c3.905,3.334,5.858,7.734,5.858,13.203c0,4.271-1.225,7.943-3.672,11.016
		C634.265,53.425,631.037,55.391,627.027,56.25z M615.699,49.336h2.891c8.619,0,12.93-3.294,12.93-9.883
		c0-6.172-4.192-9.258-12.577-9.258H615.7L615.699,49.336L615.699,49.336z"/>
	<path fill="#FFFFFF" d="M665.302,21.641v60.312h-9.102V21.641H665.302z"/>
	<path fill="#FFFFFF" d="M715.336,30.586l-7.383,4.375c-1.381-2.396-2.695-3.958-3.945-4.688c-1.303-0.833-2.981-1.25-5.039-1.25
		c-2.525,0-4.623,0.717-6.289,2.15c-1.667,1.407-2.5,3.179-2.5,5.316c0,2.945,2.188,5.316,6.562,7.114l6.016,2.463
		c4.896,1.98,8.478,4.397,10.742,7.25c2.266,2.854,3.398,6.354,3.398,10.496c0,5.552-1.851,10.139-5.548,13.761
		c-3.725,3.649-8.347,5.473-13.866,5.473c-5.234,0-9.559-1.557-12.97-4.67c-3.358-3.11-5.456-7.479-6.289-13.104l9.22-2.03
		c0.416,3.542,1.146,5.989,2.188,7.344c1.875,2.604,4.609,3.906,8.203,3.906c2.838,0,5.195-0.949,7.07-2.849
		c1.875-1.9,2.812-4.308,2.812-7.223c0-1.171-0.163-2.244-0.487-3.221c-0.326-0.977-0.834-1.874-1.523-2.693
		c-0.69-0.818-1.582-1.588-2.676-2.303c-1.094-0.717-2.396-1.398-3.906-2.051l-5.82-2.42c-8.256-3.486-12.383-8.587-12.383-15.301
		c0-4.527,1.731-8.314,5.195-11.358c3.463-3.071,7.772-4.606,12.93-4.606C706,20.469,711.429,23.842,715.336,30.586z"/>
</g>
</svg>
